<?xml version="1.0" encoding="UTF-8" standalone="no"?>
<!-- Created with Inkscape (http://www.inkscape.org/) -->

<svg
   xmlns:dc="http://purl.org/dc/elements/1.1/"
   xmlns:cc="http://creativecommons.org/ns#"
   xmlns:rdf="http://www.w3.org/1999/02/22-rdf-syntax-ns#"
   xmlns:svg="http://www.w3.org/2000/svg"
   xmlns="http://www.w3.org/2000/svg"
   xmlns:xlink="http://www.w3.org/1999/xlink"
   xmlns:sodipodi="http://sodipodi.sourceforge.net/DTD/sodipodi-0.dtd"
   xmlns:inkscape="http://www.inkscape.org/namespaces/inkscape"
   width="2.4803147in"
   height="3.4645665in"
   viewBox="0 0 223.22833 311.81099"
   id="svg11376"
   version="1.1"
   inkscape:version="0.91 r13725"
   sodipodi:docname="10-CLUBS.svg">
  <defs
     id="defs11378">
    <linearGradient
       id="linearGradient3006">
      <stop
         style="stop-color:#ffffff;stop-opacity:1;"
         offset="0"
         id="stop3008" />
      <stop
         id="stop3014"
         offset="0.37675071"
         style="stop-color:#7f7f7f;stop-opacity:1;" />
      <stop
         style="stop-color:#ffffff;stop-opacity:1;"
         offset="0.80194807"
         id="stop3016" />
      <stop
         style="stop-color:#cccccc;stop-opacity:1"
         offset="1"
         id="stop3010" />
    </linearGradient>
    <linearGradient
       id="linearGradient3804">
      <stop
         style="stop-color:#000000;stop-opacity:1;"
         offset="0"
         id="stop3806" />
      <stop
         id="stop3812"
         offset="0.5"
         style="stop-color:#333333;stop-opacity:1" />
      <stop
         style="stop-color:#000000;stop-opacity:1;"
         offset="1"
         id="stop3808" />
    </linearGradient>
    <linearGradient
       id="linearGradient3851">
      <stop
         style="stop-color:#808080;stop-opacity:1;"
         offset="0"
         id="stop3853" />
      <stop
         id="stop3859"
         offset="0.5"
         style="stop-color:#ffffff;stop-opacity:1;" />
      <stop
         style="stop-color:#808080;stop-opacity:1;"
         offset="1"
         id="stop3855" />
    </linearGradient>
    <radialGradient
       inkscape:collect="always"
       xlink:href="#linearGradient3933-4-3"
       id="radialGradient3939-7-7"
       cx="44.149761"
       cy="208.92761"
       fx="44.149761"
       fy="208.92761"
       r="74.726646"
       gradientTransform="matrix(0.97241988,-0.00350785,0.00204639,0.40929875,4026.4071,-290.65137)"
       gradientUnits="userSpaceOnUse" />
    <linearGradient
       inkscape:collect="always"
       id="linearGradient3933-4-3">
      <stop
         style="stop-color:#000000;stop-opacity:1;"
         offset="0"
         id="stop3935-0-7" />
      <stop
         style="stop-color:#000000;stop-opacity:0;"
         offset="1"
         id="stop3937-9-2" />
    </linearGradient>
    <linearGradient
       inkscape:collect="always"
       xlink:href="#linearGradient3006"
       id="linearGradient3012-2-7"
       x1="81.90625"
       y1="294.38422"
       x2="178.15625"
       y2="294.38422"
       gradientUnits="userSpaceOnUse"
       gradientTransform="translate(3914.848,-255.2825)" />
    <linearGradient
       gradientTransform="translate(3914.848,-376.2825)"
       inkscape:collect="always"
       xlink:href="#linearGradient3804"
       id="linearGradient3810-9-1"
       x1="65.223801"
       y1="394.69629"
       x2="156.7487"
       y2="394.69629"
       gradientUnits="userSpaceOnUse" />
    <radialGradient
       inkscape:collect="always"
       xlink:href="#linearGradient3024-3-7"
       id="radialGradient3030-7-1"
       cx="114.59315"
       cy="428.49252"
       fx="114.59315"
       fy="428.49252"
       r="43.141743"
       gradientTransform="matrix(0.79138519,4.4166814e-8,0,0.48100739,3940.8627,-177.7307)"
       gradientUnits="userSpaceOnUse" />
    <linearGradient
       inkscape:collect="always"
       id="linearGradient3024-3-7">
      <stop
         id="stop3028-2-7"
         offset="0"
         style="stop-color:#000000;stop-opacity:1" />
      <stop
         id="stop3026-2-7"
         offset="1"
         style="stop-color:#242424;stop-opacity:1;" />
    </linearGradient>
    <linearGradient
       gradientTransform="translate(3914.848,-376.2825)"
       inkscape:collect="always"
       xlink:href="#linearGradient3933-4-3"
       id="linearGradient3113-4-7"
       gradientUnits="userSpaceOnUse"
       x1="145.60164"
       y1="375.92633"
       x2="183.7796"
       y2="390.78296" />
    <linearGradient
       gradientTransform="translate(3914.848,-376.2825)"
       inkscape:collect="always"
       xlink:href="#linearGradient3933-4-3"
       id="linearGradient3107-7-9"
       x1="113.00574"
       y1="395.66125"
       x2="116.81388"
       y2="405.19611"
       gradientUnits="userSpaceOnUse" />
    <linearGradient
       inkscape:collect="always"
       xlink:href="#linearGradient3804"
       id="linearGradient3086-3-9"
       gradientUnits="userSpaceOnUse"
       gradientTransform="matrix(0.43846429,7.9081918e-4,-6.5324466e-4,0.53080568,903.27012,-3758.3554)"
       x1="-158.78125"
       y1="459.14062"
       x2="-128.625"
       y2="459.14062" />
    <linearGradient
       inkscape:collect="always"
       xlink:href="#linearGradient3851"
       id="linearGradient3088-8-0"
       gradientUnits="userSpaceOnUse"
       gradientTransform="matrix(0.43846429,7.9081918e-4,-6.5324466e-4,0.53080568,970.15112,-3759.4954)"
       x1="-311.3125"
       y1="463.51562"
       x2="-281.15625"
       y2="463.51562" />
    <radialGradient
       inkscape:collect="always"
       xlink:href="#linearGradient3933-4-3"
       id="radialGradient3939-7-6"
       cx="44.149761"
       cy="208.92761"
       fx="44.149761"
       fy="208.92761"
       r="74.726646"
       gradientTransform="matrix(0.97241988,-0.00350785,0.00204639,0.40929875,4026.4074,-290.65146)"
       gradientUnits="userSpaceOnUse" />
    <linearGradient
       inkscape:collect="always"
       xlink:href="#linearGradient2989-6-6"
       id="linearGradient3004-8"
       gradientUnits="userSpaceOnUse"
       gradientTransform="translate(3896.2872,-468.4428)"
       x1="104.75369"
       y1="536.86133"
       x2="201.77882"
       y2="536.86133" />
    <linearGradient
       id="linearGradient2989-6-6">
      <stop
         style="stop-color:#1f1f1f;stop-opacity:1"
         offset="0"
         id="stop2991-1-5" />
      <stop
         id="stop2997-8-0"
         offset="0.5"
         style="stop-color:#000000;stop-opacity:1;" />
      <stop
         style="stop-color:#444444;stop-opacity:1"
         offset="1"
         id="stop2993-9-9" />
    </linearGradient>
    <linearGradient
       inkscape:collect="always"
       xlink:href="#linearGradient3006"
       id="linearGradient3012-2-0"
       x1="81.90625"
       y1="294.38422"
       x2="178.15625"
       y2="294.38422"
       gradientUnits="userSpaceOnUse"
       gradientTransform="translate(3914.8482,-255.28248)" />
    <linearGradient
       gradientTransform="translate(3914.8482,-376.2825)"
       inkscape:collect="always"
       xlink:href="#linearGradient3804"
       id="linearGradient3810-9-9"
       x1="65.223801"
       y1="394.69629"
       x2="156.7487"
       y2="394.69629"
       gradientUnits="userSpaceOnUse" />
    <radialGradient
       inkscape:collect="always"
       xlink:href="#linearGradient3024-3-7"
       id="radialGradient3030-7-0"
       cx="114.59315"
       cy="428.49252"
       fx="114.59315"
       fy="428.49252"
       r="43.141743"
       gradientTransform="matrix(0.79138519,4.4166814e-8,0,0.48100739,3940.8629,-177.73073)"
       gradientUnits="userSpaceOnUse" />
    <linearGradient
       gradientTransform="translate(3914.8482,-376.2825)"
       inkscape:collect="always"
       xlink:href="#linearGradient3933-4-3"
       id="linearGradient3113-4-8"
       gradientUnits="userSpaceOnUse"
       x1="145.60164"
       y1="375.92633"
       x2="183.7796"
       y2="390.78296" />
    <linearGradient
       gradientTransform="translate(3914.8482,-376.2825)"
       inkscape:collect="always"
       xlink:href="#linearGradient3933-4-3"
       id="linearGradient3107-7-3"
       x1="113.00574"
       y1="395.66125"
       x2="116.81388"
       y2="405.19611"
       gradientUnits="userSpaceOnUse" />
    <linearGradient
       inkscape:collect="always"
       xlink:href="#linearGradient3804"
       id="linearGradient3086-3-7"
       gradientUnits="userSpaceOnUse"
       gradientTransform="matrix(0.43846429,7.9081918e-4,-6.5324466e-4,0.53080568,903.2701,-3758.3555)"
       x1="-158.78125"
       y1="459.14062"
       x2="-128.625"
       y2="459.14062" />
    <linearGradient
       inkscape:collect="always"
       xlink:href="#linearGradient3851"
       id="linearGradient3088-8-1"
       gradientUnits="userSpaceOnUse"
       gradientTransform="matrix(0.43846429,7.9081918e-4,-6.5324466e-4,0.53080568,970.15118,-3759.4955)"
       x1="-311.3125"
       y1="463.51562"
       x2="-281.15625"
       y2="463.51562" />
    <pattern
       inkscape:collect="always"
       xlink:href="#pattern13545-1"
       id="pattern72508"
       patternTransform="matrix(-0.11059956,0.11059956,-0.11059956,-0.11059956,-70.743467,2137.2659)" />
    <pattern
       patternTransform="matrix(-0.11059956,0.11059956,-0.11059956,-0.11059956,-106.1174,687.64592)"
       id="pattern13545-1"
       xlink:href="#pattern13024-5" />
    <pattern
       id="pattern13024-5"
       patternTransform="translate(-254.02376,74.426221)"
       height="110.74085"
       width="108.6184"
       patternUnits="userSpaceOnUse">
      <path
         style="fill:#131f67;fill-opacity:1;stroke:none"
         id="path13016-2"
         d="m -1016.046,25.720671 -10.7642,16.120541 7.1773,18.006272 -18.6578,-5.255841 -14.9071,12.390288 -0.767,-19.36883 -16.3904,-10.348653 18.1838,-6.714754 4.7773,-18.786107 12.0052,15.218884 z"
         transform="translate(1070.3552,-11.763587)" />
      <path
         transform="matrix(0.8660254,0.5,-0.5,0.8660254,946.33909,568.72784)"
         d="m -1016.046,25.720671 -10.7642,16.120541 7.1773,18.006272 -18.6578,-5.255841 -14.9071,12.390288 -0.767,-19.36883 -16.3904,-10.348653 18.1838,-6.714754 4.7773,-18.786107 12.0052,15.218884 z"
         id="path13018-7"
         style="fill:#131f67;fill-opacity:1;stroke:none" />
      <path
         transform="translate(1124.6644,-11.763587)"
         style="fill:#131f67;fill-opacity:1;stroke:none"
         id="path13020-6"
         d="m -1016.046,25.720671 -10.7642,16.120541 7.1773,18.006272 -18.6578,-5.255841 -14.9071,12.390288 -0.767,-19.36883 -16.3904,-10.348653 18.1838,-6.714754 4.7773,-18.786107 12.0052,15.218884 z" />
      <path
         transform="matrix(0.8660254,0.5,-0.5,0.8660254,1000.6483,568.72784)"
         d="m -1016.046,25.720671 -10.7642,16.120541 7.1773,18.006272 -18.6578,-5.255841 -14.9071,12.390288 -0.767,-19.36883 -16.3904,-10.348653 18.1838,-6.714754 4.7773,-18.786107 12.0052,15.218884 z"
         id="path13022-1"
         style="fill:#131f67;fill-opacity:1;stroke:none" />
    </pattern>
    <pattern
       inkscape:collect="always"
       xlink:href="#pattern15142-1"
       id="pattern72564"
       patternTransform="matrix(0.10623121,-0.1062312,0.10623121,0.1062312,-199.21061,2428.6515)" />
    <pattern
       patternTransform="matrix(0.10623121,-0.1062312,0.10623121,0.1062312,-598.64084,979.03152)"
       id="pattern15142-1"
       xlink:href="#pattern13074-4-7" />
    <pattern
       patternTransform="matrix(0.10623121,-0.1062312,0.10623121,0.1062312,-605.82881,365.81179)"
       id="pattern13074-4-7"
       xlink:href="#pattern13064-2-4" />
    <pattern
       patternTransform="matrix(0.10623121,-0.1062312,0.10623121,0.1062312,-836.82881,38.811786)"
       id="pattern13064-2-4"
       xlink:href="#pattern8526-950-188-3-0" />
    <pattern
       patternTransform="matrix(0.10623121,-0.1062312,0.10623121,0.1062312,13.113538,22.901883)"
       id="pattern8526-950-188-3-0"
       xlink:href="#pattern8519-687-26-2-9" />
    <pattern
       patternTransform="matrix(0.10623121,-0.1062312,0.10623121,0.1062312,-23.656015,100.68363)"
       id="pattern8519-687-26-2-9"
       xlink:href="#pattern8507-266-27-2-4" />
    <pattern
       patternTransform="matrix(0.10623119,-0.10623119,0.10623119,0.10623119,194.54709,-74.729113)"
       id="pattern8507-266-27-2-4"
       xlink:href="#pattern8501-248-271-1-8" />
    <pattern
       patternTransform="matrix(0.0652057,-0.0652057,0.0652057,0.0652057,194.54709,-74.729113)"
       id="pattern8501-248-271-1-8"
       xlink:href="#pattern8475-545-163-6-8" />
    <pattern
       patternTransform="matrix(0.11006325,-0.11006325,0.11006325,0.11006325,-254.02376,74.426221)"
       id="pattern8475-545-163-6-8"
       xlink:href="#pattern8463-7-486-8-2" />
    <pattern
       id="pattern8463-7-486-8-2"
       patternTransform="translate(-254.02376,74.426221)"
       height="110.74085"
       width="108.6184"
       patternUnits="userSpaceOnUse">
      <path
         style="fill:#d40000;fill-opacity:1;stroke:none"
         id="path11396-5-4"
         d="m -1016.046,25.720671 -10.7642,16.120541 7.1773,18.006272 -18.6578,-5.255841 -14.9071,12.390288 -0.767,-19.36883 -16.3904,-10.348653 18.1838,-6.714754 4.7773,-18.786107 12.0052,15.218884 z"
         transform="translate(1070.3552,-11.763587)" />
      <path
         transform="matrix(0.8660254,0.5,-0.5,0.8660254,946.33909,568.72784)"
         d="m -1016.046,25.720671 -10.7642,16.120541 7.1773,18.006272 -18.6578,-5.255841 -14.9071,12.390288 -0.767,-19.36883 -16.3904,-10.348653 18.1838,-6.714754 4.7773,-18.786107 12.0052,15.218884 z"
         id="path11398-7-5"
         style="fill:#d40000;fill-opacity:1;stroke:none" />
      <path
         transform="translate(1124.6644,-11.763587)"
         style="fill:#d40000;fill-opacity:1;stroke:none"
         id="path11400-6-5"
         d="m -1016.046,25.720671 -10.7642,16.120541 7.1773,18.006272 -18.6578,-5.255841 -14.9071,12.390288 -0.767,-19.36883 -16.3904,-10.348653 18.1838,-6.714754 4.7773,-18.786107 12.0052,15.218884 z" />
      <path
         transform="matrix(0.8660254,0.5,-0.5,0.8660254,1000.6483,568.72784)"
         d="m -1016.046,25.720671 -10.7642,16.120541 7.1773,18.006272 -18.6578,-5.255841 -14.9071,12.390288 -0.767,-19.36883 -16.3904,-10.348653 18.1838,-6.714754 4.7773,-18.786107 12.0052,15.218884 z"
         id="path11402-1-1"
         style="fill:#d40000;fill-opacity:1;stroke:none" />
    </pattern>
  </defs>
  <sodipodi:namedview
     id="base"
     pagecolor="#ffffff"
     bordercolor="#666666"
     borderopacity="1.0"
     inkscape:pageopacity="0.0"
     inkscape:pageshadow="2"
     inkscape:zoom="3.3138141"
     inkscape:cx="104.6518"
     inkscape:cy="291.32799"
     inkscape:document-units="px"
     inkscape:current-layer="layer1"
     showgrid="false"
     units="in"
     inkscape:window-width="1280"
     inkscape:window-height="700"
     inkscape:window-x="184"
     inkscape:window-y="62"
     inkscape:window-maximized="0"
     fit-margin-top="0"
     fit-margin-left="0"
     fit-margin-right="0"
     fit-margin-bottom="0" />
  <metadata
     id="metadata11381">
    <rdf:RDF>
      <cc:Work
         rdf:about="">
        <dc:format>image/svg+xml</dc:format>
        <dc:type
           rdf:resource="http://purl.org/dc/dcmitype/StillImage" />
        <dc:title />
      </cc:Work>
    </rdf:RDF>
  </metadata>
  <g
     inkscape:label="Layer 1"
     inkscape:groupmode="layer"
     id="layer1"
     transform="translate(-2402.4931,2146.5956)">
    <g
       inkscape:label="Printing Marks"
       id="printing-marks-0-11-94-9-4"
       transform="matrix(0.99553774,0,0,0.99680134,468.48764,-1457.4607)" />
    <g
       inkscape:label="Printing Marks"
       id="printing-marks-0-11-8-7-3"
       transform="matrix(0.99553774,0,0,0.99680134,732.71268,-1457.4607)" />
    <g
       style="display:inline;opacity:1"
       id="g8337-7-7-3"
       transform="matrix(0.99553774,0,0,0.99680134,1282.6816,-1108.2114)" />
    <g
       style="display:inline;opacity:1"
       id="g8337-7-1-5-1"
       transform="matrix(0.99553774,0,0,0.99680134,1546.9067,-1108.2114)" />
    <g
       id="g5701"
       inkscape:label="Printing Marks"
       transform="matrix(1.0039097,0,0,1.0069802,1005.5505,-9.6258846)" />
    <g
       inkscape:label="Printing Marks"
       id="g5747"
       transform="matrix(1.0039097,0,0,1.0069802,1289.8363,21.088361)" />
    <path
       style="display:inline;opacity:1"
       sodipodi:nodetypes="ccccccccccccccc"
       inkscape:connector-curvature="0"
       id="path147-0-8-1-6-13-2-22-1-5"
       d="m 2565.6385,-2113.0924 c -9.7745,0.2123 -14.1573,11.2173 -6.9184,19.7633 1.0499,1.2466 1.1582,1.9619 -0.7646,0.7646 -4.8737,-3.2592 -14.2191,-1.1167 -14.6977,8.8472 -0.5911,12.2771 16.5628,15.8144 19.7836,2.7598 0.1701,-1.3774 1.2895,-1.3459 1.0196,0.6092 -0.2937,5.3064 -1.9509,10.266 -4.2287,15.1025 3.8391,0 8.1296,0 11.6202,0 -2.2777,-4.8365 -3.9349,-9.7961 -4.2286,-15.1025 -0.2699,-1.9551 0.8495,-1.9866 1.0195,-0.6092 3.2209,13.0546 20.3749,9.5173 19.7837,-2.7598 -0.4784,-9.9639 -9.8239,-12.1064 -14.6978,-8.8472 -1.9228,1.1973 -1.8144,0.482 -0.7645,-0.7646 7.239,-8.546 2.8561,-19.551 -6.9183,-19.7633 0,0 0,1e-4 -0.01,0 z" />
    <path
       style="display:inline;opacity:1"
       inkscape:transform-center-y="0.35355339"
       inkscape:transform-center-x="-110.30866"
       sodipodi:nodetypes="ccccccccccccccc"
       inkscape:connector-curvature="0"
       id="path147-0-8-1-6-75-2-83-21-1-8"
       d="m 2462.568,-2113.0924 c -9.7745,0.2123 -14.1575,11.2173 -6.9184,19.7633 1.0499,1.2466 1.1582,1.9619 -0.7646,0.7646 -4.8738,-3.2592 -14.2191,-1.1167 -14.6977,8.8472 -0.5911,12.2771 16.5628,15.8144 19.7836,2.7598 0.1701,-1.3774 1.2894,-1.3459 1.0196,0.6092 -0.2937,5.3064 -1.9509,10.266 -4.2287,15.1025 3.8391,0 8.1296,0 11.6202,0 -2.2777,-4.8365 -3.9349,-9.7961 -4.2286,-15.1025 -0.2699,-1.9551 0.8495,-1.9866 1.0195,-0.6092 3.2209,13.0546 20.3748,9.5173 19.7836,-2.7598 -0.4784,-9.9639 -9.8238,-12.1064 -14.6977,-8.8472 -1.9228,1.1973 -1.8145,0.482 -0.7646,-0.7646 7.2391,-8.546 2.8561,-19.551 -6.9182,-19.7633 0,0 0,1e-4 -0.01,0 z" />
    <path
       style="display:inline;opacity:1"
       sodipodi:nodetypes="ccccccccccccccc"
       inkscape:connector-curvature="0"
       id="path147-0-8-1-6-7-5-5-7-3-5-5"
       d="m 2565.6385,-1867.4588 c -9.7745,-0.2123 -14.1573,-11.2173 -6.9184,-19.7633 1.0499,-1.2466 1.1582,-1.9619 -0.7646,-0.7646 -4.8737,3.2592 -14.2191,1.1167 -14.6977,-8.8473 -0.5911,-12.2769 16.5628,-15.8143 19.7836,-2.7596 0.1701,1.3773 1.2895,1.3459 1.0196,-0.6092 -0.2937,-5.3064 -1.9509,-10.2661 -4.2287,-15.1026 3.8391,0 8.1296,0 11.6202,0 -2.2777,4.8365 -3.9349,9.7962 -4.2286,15.1026 -0.2699,1.9551 0.8495,1.9865 1.0195,0.6092 3.2209,-13.0547 20.3749,-9.5173 19.7837,2.7596 -0.4784,9.964 -9.8239,12.1065 -14.6978,8.8473 -1.9228,-1.1973 -1.8144,-0.482 -0.7645,0.7646 7.239,8.546 2.8561,19.551 -6.9183,19.7633 0,0 0,-10e-5 -0.01,0 z" />
    <path
       style="display:inline;opacity:1"
       inkscape:transform-center-y="-0.35355495"
       inkscape:transform-center-x="-110.30866"
       sodipodi:nodetypes="ccccccccccccccc"
       inkscape:connector-curvature="0"
       id="path147-0-8-1-6-75-6-1-2-7-9-3"
       d="m 2462.568,-1867.4588 c -9.7745,-0.2123 -14.1575,-11.2173 -6.9184,-19.7633 1.0499,-1.2466 1.1582,-1.9619 -0.7646,-0.7646 -4.8738,3.2592 -14.2191,1.1167 -14.6977,-8.8473 -0.5911,-12.2769 16.5628,-15.8143 19.7836,-2.7596 0.1701,1.3773 1.2894,1.3459 1.0196,-0.6092 -0.2937,-5.3064 -1.9509,-10.2661 -4.2287,-15.1026 3.8391,0 8.1296,0 11.6202,0 -2.2777,4.8365 -3.9349,9.7962 -4.2286,15.1026 -0.2699,1.9551 0.8495,1.9865 1.0195,0.6092 3.2209,-13.0547 20.3748,-9.5173 19.7836,2.7596 -0.4784,9.964 -9.8238,12.1065 -14.6977,8.8473 -1.9228,-1.1973 -1.8145,-0.482 -0.7646,0.7646 7.2391,8.546 2.8561,19.551 -6.9182,19.7633 0,0 0,-10e-5 -0.01,0 z" />
    <path
       style="display:inline;opacity:1"
       sodipodi:nodetypes="ccccccccccccccc"
       inkscape:connector-curvature="0"
       id="path147-0-8-1-6-2-00-7-1-1-4"
       d="m 2514.1032,-2080.1276 c -9.7745,0.2123 -14.1573,11.2173 -6.9184,19.7633 1.0499,1.2465 1.1582,1.9619 -0.7645,0.7645 -4.8739,-3.2592 -14.2193,-1.1166 -14.6979,8.8473 -0.5911,12.277 16.5629,15.8143 19.7838,2.7597 0.17,-1.3774 1.2894,-1.3459 1.0195,0.6092 -0.2937,5.3064 -1.9509,10.266 -4.2286,15.1025 3.839,0 8.1295,0 11.6201,0 -2.2776,-4.8365 -3.9349,-9.7961 -4.2286,-15.1025 -0.2699,-1.9551 0.8495,-1.9866 1.0195,-0.6092 3.2208,13.0546 20.3748,9.5173 19.7837,-2.7597 -0.4785,-9.9639 -9.824,-12.1065 -14.6978,-8.8473 -1.9228,1.1974 -1.8145,0.482 -0.7646,-0.7645 7.239,-8.546 2.8561,-19.551 -6.9182,-19.7633 0,0 0,10e-5 -0.01,0 z" />
    <path
       style="display:inline;opacity:1"
       sodipodi:nodetypes="ccccccccccccccc"
       inkscape:connector-curvature="0"
       id="path147-0-8-1-6-2-0-8-6-8-1-8"
       d="m 2514.1033,-1900.4233 c -9.7745,-0.2123 -14.1575,-11.2173 -6.9184,-19.7633 1.0499,-1.2466 1.1582,-1.9619 -0.7646,-0.7646 -4.8738,3.2592 -14.2192,1.1167 -14.6978,-8.8473 -0.5911,-12.2769 16.5629,-15.8143 19.7837,-2.7596 0.1701,1.3773 1.2895,1.3459 1.0196,-0.6092 -0.2937,-5.3064 -1.9509,-10.2661 -4.2287,-15.1026 3.8391,0 8.1296,0 11.6201,0 -2.2776,4.8365 -3.9348,9.7962 -4.2285,15.1026 -0.2699,1.9551 0.8495,1.9865 1.0195,0.6092 3.2208,-13.0547 20.3748,-9.5173 19.7836,2.7596 -0.4784,9.964 -9.8239,12.1065 -14.6978,8.8473 -1.9228,-1.1973 -1.8144,-0.482 -0.7646,0.7646 7.2391,8.546 2.8562,19.551 -6.9181,19.7633 0,0 0,-10e-5 -0.01,0 z" />
    <path
       style="display:inline;opacity:1"
       sodipodi:nodetypes="ccccccccccccccc"
       inkscape:connector-curvature="0"
       id="path147-6-9-8-7-0-5-6-83-3-7"
       d="m 2608.085,-1885.0963 c 3.9097,-0.088 5.663,-4.6739 2.7673,-8.2348 -0.42,-0.5193 -0.4633,-0.8174 0.3059,-0.3185 1.9495,1.358 5.6877,0.4652 5.8791,-3.6864 0.2365,-5.1154 -6.6252,-6.5893 -7.9135,-1.1499 -0.068,0.574 -0.5158,0.5609 -0.4078,-0.2538 0.1175,-2.211 0.7803,-4.2775 1.6914,-6.2927 -1.5492,0 -3.0986,0 -4.6478,0 0.9111,2.0152 1.5739,4.0817 1.6914,6.2927 0.108,0.8147 -0.3398,0.8278 -0.4078,0.2538 -1.2883,-5.4394 -8.1499,-3.9655 -7.9135,1.1499 0.1914,4.1516 3.9296,5.0444 5.8791,3.6864 0.7692,-0.4989 0.7259,-0.2008 0.3059,0.3185 -2.8957,3.5609 -1.1424,8.1463 2.7673,8.2348 0,0 0,-10e-5 0,0 z" />
    <path
       style="display:inline;opacity:1"
       inkscape:transform-center-y="0.35355339"
       inkscape:transform-center-x="-110.30866"
       sodipodi:nodetypes="ccccccccccccccc"
       inkscape:connector-curvature="0"
       id="path147-0-8-1-6-75-2-9-77-44-0-7"
       d="m 2462.568,-2047.1634 c -9.7745,0.2123 -14.1574,11.2173 -6.9184,19.7634 1.0499,1.2465 1.1582,1.9618 -0.7646,0.7645 -4.8738,-3.2592 -14.2191,-1.1167 -14.6977,8.8473 -0.5911,12.277 16.5628,15.8143 19.7836,2.7597 0.1701,-1.3774 1.2894,-1.346 1.0196,0.6091 -0.2937,5.3064 -1.9509,10.2661 -4.2287,15.1026 3.8391,0 8.1296,0 11.6202,0 -2.2777,-4.8365 -3.9349,-9.7962 -4.2286,-15.1026 -0.2699,-1.9551 0.8495,-1.9865 1.0195,-0.6091 3.2209,13.0546 20.3748,9.5173 19.7836,-2.7597 -0.4784,-9.964 -9.8238,-12.1065 -14.6977,-8.8473 -1.9228,1.1973 -1.8145,0.482 -0.7646,-0.7645 7.2391,-8.5461 2.8561,-19.5511 -6.9182,-19.7634 0,0 0,10e-5 -0.01,0 z" />
    <path
       style="display:inline;opacity:1"
       inkscape:transform-center-y="-0.35355495"
       inkscape:transform-center-x="-110.30866"
       sodipodi:nodetypes="ccccccccccccccc"
       inkscape:connector-curvature="0"
       id="path147-0-8-1-6-75-2-8-0-3-9-3"
       d="m 2462.568,-1933.3878 c -9.7745,-0.2123 -14.1575,-11.2173 -6.9184,-19.7634 1.0499,-1.2465 1.1582,-1.9618 -0.7646,-0.7645 -4.8738,3.2592 -14.2191,1.1166 -14.6977,-8.8473 -0.5911,-12.2769 16.5628,-15.8143 19.7836,-2.7596 0.1701,1.3773 1.2894,1.3459 1.0196,-0.6092 -0.2937,-5.3064 -1.9509,-10.2661 -4.2287,-15.1026 3.8391,0 8.1296,0 11.6202,0 -2.2777,4.8365 -3.9349,9.7962 -4.2286,15.1026 -0.2699,1.9551 0.8495,1.9865 1.0195,0.6092 3.2209,-13.0547 20.3748,-9.5173 19.7836,2.7596 -0.4784,9.9639 -9.8238,12.1065 -14.6977,8.8473 -1.9228,-1.1973 -1.8145,-0.482 -0.7646,0.7645 7.2391,8.5461 2.8561,19.5511 -6.9182,19.7634 0,0 0,-10e-5 -0.01,0 z" />
    <path
       style="display:inline;opacity:1"
       inkscape:transform-center-y="0.35355339"
       inkscape:transform-center-x="-110.30866"
       sodipodi:nodetypes="ccccccccccccccc"
       inkscape:connector-curvature="0"
       id="path147-0-8-1-6-75-2-9-7-1-9-7-9"
       d="m 2565.6385,-2047.1634 c -9.7745,0.2123 -14.1573,11.2173 -6.9184,19.7634 1.0499,1.2465 1.1582,1.9618 -0.7646,0.7645 -4.8737,-3.2592 -14.2191,-1.1167 -14.6977,8.8473 -0.5911,12.277 16.5628,15.8143 19.7836,2.7597 0.1701,-1.3774 1.2895,-1.346 1.0196,0.6091 -0.2937,5.3064 -1.9509,10.2661 -4.2287,15.1026 3.8391,0 8.1296,0 11.6202,0 -2.2777,-4.8365 -3.9349,-9.7962 -4.2286,-15.1026 -0.2699,-1.9551 0.8495,-1.9865 1.0195,-0.6091 3.2209,13.0546 20.3749,9.5173 19.7837,-2.7597 -0.4784,-9.964 -9.8239,-12.1065 -14.6978,-8.8473 -1.9228,1.1973 -1.8144,0.482 -0.7645,-0.7645 7.239,-8.5461 2.8561,-19.5511 -6.9183,-19.7634 0,0 0,10e-5 -0.01,0 z" />
    <path
       style="display:inline;opacity:1"
       inkscape:transform-center-y="-0.35355495"
       inkscape:transform-center-x="-110.30866"
       sodipodi:nodetypes="ccccccccccccccc"
       inkscape:connector-curvature="0"
       id="path147-0-8-1-6-75-2-8-5-1-52-2-8"
       d="m 2565.6385,-1933.3878 c -9.7745,-0.2123 -14.1573,-11.2173 -6.9184,-19.7634 1.0499,-1.2465 1.1582,-1.9618 -0.7646,-0.7645 -4.8737,3.2592 -14.2191,1.1166 -14.6977,-8.8473 -0.5911,-12.2769 16.5628,-15.8143 19.7836,-2.7596 0.1701,1.3773 1.2895,1.3459 1.0196,-0.6092 -0.2937,-5.3064 -1.9509,-10.2661 -4.2287,-15.1026 3.8391,0 8.1296,0 11.6202,0 -2.2777,4.8365 -3.9349,9.7962 -4.2286,15.1026 -0.2699,1.9551 0.8495,1.9865 1.0195,0.6092 3.2209,-13.0547 20.3749,-9.5173 19.7837,2.7596 -0.4784,9.9639 -9.8239,12.1065 -14.6978,8.8473 -1.9228,-1.1973 -1.8144,-0.482 -0.7645,0.7645 7.239,8.5461 2.8561,19.5511 -6.9183,19.7634 0,0 0,-10e-5 -0.01,0 z" />
    <path
       style="display:inline;opacity:1"
       sodipodi:nodetypes="ccccccccccccccc"
       inkscape:connector-curvature="0"
       id="path147-6-9-8-7-4-5-62-52-8-0"
       d="m 2420.1305,-2096.2837 c -3.9098,0.088 -5.663,4.6738 -2.7674,8.2347 0.42,0.5194 0.4633,0.8174 -0.3058,0.3185 -1.9496,-1.358 -5.6876,-0.4652 -5.879,3.6864 -0.2365,5.1155 6.625,6.5894 7.9134,1.1499 0.068,-0.5739 0.5158,-0.5608 0.4077,0.2539 -0.1174,2.211 -0.7803,4.2775 -1.6914,6.2927 1.5493,0 3.0986,0 4.6479,0 -0.9111,-2.0152 -1.574,-4.0817 -1.6914,-6.2927 -0.108,-0.8147 0.3397,-0.8278 0.4077,-0.2539 1.2884,5.4395 8.15,3.9656 7.9136,-1.1499 -0.1915,-4.1516 -3.9296,-5.0444 -5.8792,-3.6864 -0.7691,0.4989 -0.7258,0.2009 -0.3058,-0.3185 2.8956,-3.5609 1.1424,-8.1463 -2.7673,-8.2347 -10e-4,0 0,0 0,0 z" />
    <path
       d="m 2410.1566,-2099.4092 0,-32.8938 3.1845,0 0,32.8938 -3.1845,0 z m 0,0"
       id="path31-6-7-6"
       inkscape:connector-curvature="0"
       style="opacity:1" />
    <path
       d="m 2422.7807,-2132.3036 c -3.0656,0 -5.5295,2.8036 -5.5295,6.2859 l 0,20.3233 c 0,3.4823 2.4652,6.2846 5.5295,6.2846 l 1.7893,0 c 3.0655,0 5.5345,-2.8023 5.5345,-6.2846 l 0,-20.3233 c 0,-3.4823 -2.4703,-6.2859 -5.5345,-6.2859 l -1.7893,0 z m 0.9253,3.1103 c 1.8099,0 3.2652,1.39 3.2652,3.1286 l 0,20.5922 c 0,1.7385 -1.4553,3.1416 -3.2652,3.1416 -1.8098,0 -3.2702,-1.4031 -3.2702,-3.1416 l 0,-20.5922 c 0,-1.7373 1.4604,-3.1286 3.2702,-3.1286 l 0,0 z m 0,0"
       id="path33-9-3-6"
       inkscape:connector-curvature="0"
       style="opacity:1" />
    <path
       d="m 2618.0561,-1881.9708 0,32.8938 -3.1845,0 0,-32.8938 3.1845,0 z m 0,0"
       id="path31-1-4-0-7"
       inkscape:connector-curvature="0"
       style="opacity:1" />
    <path
       d="m 2605.432,-1849.0763 c 3.0655,0 5.5294,-2.8036 5.5294,-6.2859 l 0,-20.3234 c 0,-3.4823 -2.4652,-6.2846 -5.5294,-6.2846 l -1.7894,0 c -3.0655,0 -5.5345,2.8023 -5.5345,6.2846 l 0,20.3234 c 0,3.4823 2.4703,6.2859 5.5345,6.2859 l 1.7894,0 z m -0.9254,-3.1103 c -1.8099,0 -3.2652,-1.3901 -3.2652,-3.1286 l 0,-20.5923 c 0,-1.7385 1.4553,-3.1416 3.2652,-3.1416 1.8098,0 3.2703,1.4031 3.2703,3.1416 l 0,20.5923 c 0,1.7372 -1.4605,3.1286 -3.2703,3.1286 l 0,0 z m 0,0"
       id="path33-5-7-4-0"
       inkscape:connector-curvature="0"
       style="opacity:1" />
  </g>
</svg>
