<?xml version="1.0" encoding="UTF-8" standalone="no"?>
<!-- Created with Inkscape (http://www.inkscape.org/) -->

<svg
   xmlns:dc="http://purl.org/dc/elements/1.1/"
   xmlns:cc="http://creativecommons.org/ns#"
   xmlns:rdf="http://www.w3.org/1999/02/22-rdf-syntax-ns#"
   xmlns:svg="http://www.w3.org/2000/svg"
   xmlns="http://www.w3.org/2000/svg"
   xmlns:xlink="http://www.w3.org/1999/xlink"
   xmlns:sodipodi="http://sodipodi.sourceforge.net/DTD/sodipodi-0.dtd"
   xmlns:inkscape="http://www.inkscape.org/namespaces/inkscape"
   width="2.480315in"
   height="3.4645669in"
   viewBox="0 0 223.22835 311.81103"
   id="svg11376"
   version="1.1"
   inkscape:version="0.91 r13725"
   sodipodi:docname="3-SPADES.svg">
  <defs
     id="defs11378">
    <linearGradient
       id="linearGradient3006">
      <stop
         style="stop-color:#ffffff;stop-opacity:1;"
         offset="0"
         id="stop3008" />
      <stop
         id="stop3014"
         offset="0.37675071"
         style="stop-color:#7f7f7f;stop-opacity:1;" />
      <stop
         style="stop-color:#ffffff;stop-opacity:1;"
         offset="0.80194807"
         id="stop3016" />
      <stop
         style="stop-color:#cccccc;stop-opacity:1"
         offset="1"
         id="stop3010" />
    </linearGradient>
    <linearGradient
       id="linearGradient3804">
      <stop
         style="stop-color:#000000;stop-opacity:1;"
         offset="0"
         id="stop3806" />
      <stop
         id="stop3812"
         offset="0.5"
         style="stop-color:#333333;stop-opacity:1" />
      <stop
         style="stop-color:#000000;stop-opacity:1;"
         offset="1"
         id="stop3808" />
    </linearGradient>
    <linearGradient
       id="linearGradient3851">
      <stop
         style="stop-color:#808080;stop-opacity:1;"
         offset="0"
         id="stop3853" />
      <stop
         id="stop3859"
         offset="0.5"
         style="stop-color:#ffffff;stop-opacity:1;" />
      <stop
         style="stop-color:#808080;stop-opacity:1;"
         offset="1"
         id="stop3855" />
    </linearGradient>
    <radialGradient
       inkscape:collect="always"
       xlink:href="#linearGradient3933-4-3"
       id="radialGradient3939-7-7"
       cx="44.149761"
       cy="208.92761"
       fx="44.149761"
       fy="208.92761"
       r="74.726646"
       gradientTransform="matrix(0.97241988,-0.00350785,0.00204639,0.40929875,4026.4071,-290.65137)"
       gradientUnits="userSpaceOnUse" />
    <linearGradient
       inkscape:collect="always"
       id="linearGradient3933-4-3">
      <stop
         style="stop-color:#000000;stop-opacity:1;"
         offset="0"
         id="stop3935-0-7" />
      <stop
         style="stop-color:#000000;stop-opacity:0;"
         offset="1"
         id="stop3937-9-2" />
    </linearGradient>
    <linearGradient
       inkscape:collect="always"
       xlink:href="#linearGradient3006"
       id="linearGradient3012-2-7"
       x1="81.90625"
       y1="294.38422"
       x2="178.15625"
       y2="294.38422"
       gradientUnits="userSpaceOnUse"
       gradientTransform="translate(3914.848,-255.2825)" />
    <linearGradient
       gradientTransform="translate(3914.848,-376.2825)"
       inkscape:collect="always"
       xlink:href="#linearGradient3804"
       id="linearGradient3810-9-1"
       x1="65.223801"
       y1="394.69629"
       x2="156.7487"
       y2="394.69629"
       gradientUnits="userSpaceOnUse" />
    <radialGradient
       inkscape:collect="always"
       xlink:href="#linearGradient3024-3-7"
       id="radialGradient3030-7-1"
       cx="114.59315"
       cy="428.49252"
       fx="114.59315"
       fy="428.49252"
       r="43.141743"
       gradientTransform="matrix(0.79138519,4.4166814e-8,0,0.48100739,3940.8627,-177.7307)"
       gradientUnits="userSpaceOnUse" />
    <linearGradient
       inkscape:collect="always"
       id="linearGradient3024-3-7">
      <stop
         id="stop3028-2-7"
         offset="0"
         style="stop-color:#000000;stop-opacity:1" />
      <stop
         id="stop3026-2-7"
         offset="1"
         style="stop-color:#242424;stop-opacity:1;" />
    </linearGradient>
    <linearGradient
       gradientTransform="translate(3914.848,-376.2825)"
       inkscape:collect="always"
       xlink:href="#linearGradient3933-4-3"
       id="linearGradient3113-4-7"
       gradientUnits="userSpaceOnUse"
       x1="145.60164"
       y1="375.92633"
       x2="183.7796"
       y2="390.78296" />
    <linearGradient
       gradientTransform="translate(3914.848,-376.2825)"
       inkscape:collect="always"
       xlink:href="#linearGradient3933-4-3"
       id="linearGradient3107-7-9"
       x1="113.00574"
       y1="395.66125"
       x2="116.81388"
       y2="405.19611"
       gradientUnits="userSpaceOnUse" />
    <linearGradient
       inkscape:collect="always"
       xlink:href="#linearGradient3804"
       id="linearGradient3086-3-9"
       gradientUnits="userSpaceOnUse"
       gradientTransform="matrix(0.43846429,7.9081918e-4,-6.5324466e-4,0.53080568,903.27012,-3758.3554)"
       x1="-158.78125"
       y1="459.14062"
       x2="-128.625"
       y2="459.14062" />
    <linearGradient
       inkscape:collect="always"
       xlink:href="#linearGradient3851"
       id="linearGradient3088-8-0"
       gradientUnits="userSpaceOnUse"
       gradientTransform="matrix(0.43846429,7.9081918e-4,-6.5324466e-4,0.53080568,970.15112,-3759.4954)"
       x1="-311.3125"
       y1="463.51562"
       x2="-281.15625"
       y2="463.51562" />
    <radialGradient
       inkscape:collect="always"
       xlink:href="#linearGradient3933-4-3"
       id="radialGradient3939-7-6"
       cx="44.149761"
       cy="208.92761"
       fx="44.149761"
       fy="208.92761"
       r="74.726646"
       gradientTransform="matrix(0.97241988,-0.00350785,0.00204639,0.40929875,4026.4074,-290.65146)"
       gradientUnits="userSpaceOnUse" />
    <linearGradient
       inkscape:collect="always"
       xlink:href="#linearGradient2989-6-6"
       id="linearGradient3004-8"
       gradientUnits="userSpaceOnUse"
       gradientTransform="translate(3896.2872,-468.4428)"
       x1="104.75369"
       y1="536.86133"
       x2="201.77882"
       y2="536.86133" />
    <linearGradient
       id="linearGradient2989-6-6">
      <stop
         style="stop-color:#1f1f1f;stop-opacity:1"
         offset="0"
         id="stop2991-1-5" />
      <stop
         id="stop2997-8-0"
         offset="0.5"
         style="stop-color:#000000;stop-opacity:1;" />
      <stop
         style="stop-color:#444444;stop-opacity:1"
         offset="1"
         id="stop2993-9-9" />
    </linearGradient>
    <linearGradient
       inkscape:collect="always"
       xlink:href="#linearGradient3006"
       id="linearGradient3012-2-0"
       x1="81.90625"
       y1="294.38422"
       x2="178.15625"
       y2="294.38422"
       gradientUnits="userSpaceOnUse"
       gradientTransform="translate(3914.8482,-255.28248)" />
    <linearGradient
       gradientTransform="translate(3914.8482,-376.2825)"
       inkscape:collect="always"
       xlink:href="#linearGradient3804"
       id="linearGradient3810-9-9"
       x1="65.223801"
       y1="394.69629"
       x2="156.7487"
       y2="394.69629"
       gradientUnits="userSpaceOnUse" />
    <radialGradient
       inkscape:collect="always"
       xlink:href="#linearGradient3024-3-7"
       id="radialGradient3030-7-0"
       cx="114.59315"
       cy="428.49252"
       fx="114.59315"
       fy="428.49252"
       r="43.141743"
       gradientTransform="matrix(0.79138519,4.4166814e-8,0,0.48100739,3940.8629,-177.73073)"
       gradientUnits="userSpaceOnUse" />
    <linearGradient
       gradientTransform="translate(3914.8482,-376.2825)"
       inkscape:collect="always"
       xlink:href="#linearGradient3933-4-3"
       id="linearGradient3113-4-8"
       gradientUnits="userSpaceOnUse"
       x1="145.60164"
       y1="375.92633"
       x2="183.7796"
       y2="390.78296" />
    <linearGradient
       gradientTransform="translate(3914.8482,-376.2825)"
       inkscape:collect="always"
       xlink:href="#linearGradient3933-4-3"
       id="linearGradient3107-7-3"
       x1="113.00574"
       y1="395.66125"
       x2="116.81388"
       y2="405.19611"
       gradientUnits="userSpaceOnUse" />
    <linearGradient
       inkscape:collect="always"
       xlink:href="#linearGradient3804"
       id="linearGradient3086-3-7"
       gradientUnits="userSpaceOnUse"
       gradientTransform="matrix(0.43846429,7.9081918e-4,-6.5324466e-4,0.53080568,903.2701,-3758.3555)"
       x1="-158.78125"
       y1="459.14062"
       x2="-128.625"
       y2="459.14062" />
    <linearGradient
       inkscape:collect="always"
       xlink:href="#linearGradient3851"
       id="linearGradient3088-8-1"
       gradientUnits="userSpaceOnUse"
       gradientTransform="matrix(0.43846429,7.9081918e-4,-6.5324466e-4,0.53080568,970.15118,-3759.4955)"
       x1="-311.3125"
       y1="463.51562"
       x2="-281.15625"
       y2="463.51562" />
    <pattern
       inkscape:collect="always"
       xlink:href="#pattern13545-1"
       id="pattern72508"
       patternTransform="matrix(-0.11059956,0.11059956,-0.11059956,-0.11059956,-70.743467,2137.2659)" />
    <pattern
       patternTransform="matrix(-0.11059956,0.11059956,-0.11059956,-0.11059956,-106.1174,687.64592)"
       id="pattern13545-1"
       xlink:href="#pattern13024-5" />
    <pattern
       id="pattern13024-5"
       patternTransform="translate(-254.02376,74.426221)"
       height="110.74085"
       width="108.6184"
       patternUnits="userSpaceOnUse">
      <path
         style="fill:#131f67;fill-opacity:1;stroke:none"
         id="path13016-2"
         d="m -1016.046,25.720671 -10.7642,16.120541 7.1773,18.006272 -18.6578,-5.255841 -14.9071,12.390288 -0.767,-19.36883 -16.3904,-10.348653 18.1838,-6.714754 4.7773,-18.786107 12.0052,15.218884 z"
         transform="translate(1070.3552,-11.763587)" />
      <path
         transform="matrix(0.8660254,0.5,-0.5,0.8660254,946.33909,568.72784)"
         d="m -1016.046,25.720671 -10.7642,16.120541 7.1773,18.006272 -18.6578,-5.255841 -14.9071,12.390288 -0.767,-19.36883 -16.3904,-10.348653 18.1838,-6.714754 4.7773,-18.786107 12.0052,15.218884 z"
         id="path13018-7"
         style="fill:#131f67;fill-opacity:1;stroke:none" />
      <path
         transform="translate(1124.6644,-11.763587)"
         style="fill:#131f67;fill-opacity:1;stroke:none"
         id="path13020-6"
         d="m -1016.046,25.720671 -10.7642,16.120541 7.1773,18.006272 -18.6578,-5.255841 -14.9071,12.390288 -0.767,-19.36883 -16.3904,-10.348653 18.1838,-6.714754 4.7773,-18.786107 12.0052,15.218884 z" />
      <path
         transform="matrix(0.8660254,0.5,-0.5,0.8660254,1000.6483,568.72784)"
         d="m -1016.046,25.720671 -10.7642,16.120541 7.1773,18.006272 -18.6578,-5.255841 -14.9071,12.390288 -0.767,-19.36883 -16.3904,-10.348653 18.1838,-6.714754 4.7773,-18.786107 12.0052,15.218884 z"
         id="path13022-1"
         style="fill:#131f67;fill-opacity:1;stroke:none" />
    </pattern>
    <pattern
       inkscape:collect="always"
       xlink:href="#pattern15142-1"
       id="pattern72564"
       patternTransform="matrix(0.10623121,-0.1062312,0.10623121,0.1062312,-199.21061,2428.6515)" />
    <pattern
       patternTransform="matrix(0.10623121,-0.1062312,0.10623121,0.1062312,-598.64084,979.03152)"
       id="pattern15142-1"
       xlink:href="#pattern13074-4-7" />
    <pattern
       patternTransform="matrix(0.10623121,-0.1062312,0.10623121,0.1062312,-605.82881,365.81179)"
       id="pattern13074-4-7"
       xlink:href="#pattern13064-2-4" />
    <pattern
       patternTransform="matrix(0.10623121,-0.1062312,0.10623121,0.1062312,-836.82881,38.811786)"
       id="pattern13064-2-4"
       xlink:href="#pattern8526-950-188-3-0" />
    <pattern
       patternTransform="matrix(0.10623121,-0.1062312,0.10623121,0.1062312,13.113538,22.901883)"
       id="pattern8526-950-188-3-0"
       xlink:href="#pattern8519-687-26-2-9" />
    <pattern
       patternTransform="matrix(0.10623121,-0.1062312,0.10623121,0.1062312,-23.656015,100.68363)"
       id="pattern8519-687-26-2-9"
       xlink:href="#pattern8507-266-27-2-4" />
    <pattern
       patternTransform="matrix(0.10623119,-0.10623119,0.10623119,0.10623119,194.54709,-74.729113)"
       id="pattern8507-266-27-2-4"
       xlink:href="#pattern8501-248-271-1-8" />
    <pattern
       patternTransform="matrix(0.0652057,-0.0652057,0.0652057,0.0652057,194.54709,-74.729113)"
       id="pattern8501-248-271-1-8"
       xlink:href="#pattern8475-545-163-6-8" />
    <pattern
       patternTransform="matrix(0.11006325,-0.11006325,0.11006325,0.11006325,-254.02376,74.426221)"
       id="pattern8475-545-163-6-8"
       xlink:href="#pattern8463-7-486-8-2" />
    <pattern
       id="pattern8463-7-486-8-2"
       patternTransform="translate(-254.02376,74.426221)"
       height="110.74085"
       width="108.6184"
       patternUnits="userSpaceOnUse">
      <path
         style="fill:#d40000;fill-opacity:1;stroke:none"
         id="path11396-5-4"
         d="m -1016.046,25.720671 -10.7642,16.120541 7.1773,18.006272 -18.6578,-5.255841 -14.9071,12.390288 -0.767,-19.36883 -16.3904,-10.348653 18.1838,-6.714754 4.7773,-18.786107 12.0052,15.218884 z"
         transform="translate(1070.3552,-11.763587)" />
      <path
         transform="matrix(0.8660254,0.5,-0.5,0.8660254,946.33909,568.72784)"
         d="m -1016.046,25.720671 -10.7642,16.120541 7.1773,18.006272 -18.6578,-5.255841 -14.9071,12.390288 -0.767,-19.36883 -16.3904,-10.348653 18.1838,-6.714754 4.7773,-18.786107 12.0052,15.218884 z"
         id="path11398-7-5"
         style="fill:#d40000;fill-opacity:1;stroke:none" />
      <path
         transform="translate(1124.6644,-11.763587)"
         style="fill:#d40000;fill-opacity:1;stroke:none"
         id="path11400-6-5"
         d="m -1016.046,25.720671 -10.7642,16.120541 7.1773,18.006272 -18.6578,-5.255841 -14.9071,12.390288 -0.767,-19.36883 -16.3904,-10.348653 18.1838,-6.714754 4.7773,-18.786107 12.0052,15.218884 z" />
      <path
         transform="matrix(0.8660254,0.5,-0.5,0.8660254,1000.6483,568.72784)"
         d="m -1016.046,25.720671 -10.7642,16.120541 7.1773,18.006272 -18.6578,-5.255841 -14.9071,12.390288 -0.767,-19.36883 -16.3904,-10.348653 18.1838,-6.714754 4.7773,-18.786107 12.0052,15.218884 z"
         id="path11402-1-1"
         style="fill:#d40000;fill-opacity:1;stroke:none" />
    </pattern>
  </defs>
  <sodipodi:namedview
     id="base"
     pagecolor="#ffffff"
     bordercolor="#666666"
     borderopacity="1.0"
     inkscape:pageopacity="0.0"
     inkscape:pageshadow="2"
     inkscape:zoom="0.25268827"
     inkscape:cx="459.47543"
     inkscape:cy="153.60548"
     inkscape:document-units="px"
     inkscape:current-layer="layer1"
     showgrid="false"
     units="in"
     inkscape:window-width="1292"
     inkscape:window-height="1024"
     inkscape:window-x="593"
     inkscape:window-y="0"
     inkscape:window-maximized="0"
     fit-margin-top="0"
     fit-margin-left="0"
     fit-margin-right="0"
     fit-margin-bottom="0" />
  <metadata
     id="metadata11381">
    <rdf:RDF>
      <cc:Work
         rdf:about="">
        <dc:format>image/svg+xml</dc:format>
        <dc:type
           rdf:resource="http://purl.org/dc/dcmitype/StillImage" />
        <dc:title></dc:title>
      </cc:Work>
    </rdf:RDF>
  </metadata>
  <g
     inkscape:label="Layer 1"
     inkscape:groupmode="layer"
     id="layer1"
     transform="translate(-565.96856,2259.6405)">
    <path
       d="m 583.60707,-2209.3284 c -4.29138,5.4646 -8.883,8.6093 -8.95926,12.8726 -0.0259,1.3805 0.81027,3.7269 3.42854,4.1761 1.69868,0.29 4.0374,-0.9376 4.08628,-3.4317 -0.01,-0.4966 0.58876,-0.4837 0.58319,0.1967 -0.0797,1.9673 -0.77742,4.2578 -1.94957,6.1223 1.87391,0 3.74772,0 5.62162,0 -1.17215,-1.8645 -1.86962,-4.155 -1.94956,-6.1223 -0.01,-0.6804 0.59065,-0.6933 0.58318,-0.1967 0.0488,2.4941 2.3876,3.7217 4.08629,3.4317 2.61826,-0.4492 3.45411,-2.7956 3.42853,-4.1761 -0.0767,-4.2633 -4.66798,-7.408 -8.95924,-12.8726 z"
       id="path6816-2-4"
       inkscape:connector-curvature="0"
       sodipodi:nodetypes="cccccccccccc"
       style="display:inline;opacity:1" />
    <path
       d="m 771.55912,-1998.1414 c -4.29137,-5.4647 -8.88299,-8.6093 -8.95925,-12.8726 -0.0259,-1.3805 0.81027,-3.727 3.42854,-4.1761 1.69868,-0.2901 4.0374,0.9376 4.08628,3.4317 -0.01,0.4965 0.58876,0.4836 0.58319,-0.1968 -0.0797,-1.9673 -0.77742,-4.2578 -1.94957,-6.1223 1.87391,0 3.74771,0 5.62161,0 -1.17215,1.8645 -1.86962,4.155 -1.94956,6.1223 -0.01,0.6804 0.59065,0.6933 0.58318,0.1968 0.0488,-2.4941 2.3876,-3.7218 4.08629,-3.4317 2.61826,0.4491 3.45411,2.7956 3.42853,4.1761 -0.0767,4.2633 -4.66798,7.4079 -8.95924,12.8726 z"
       id="path6820-0-2"
       inkscape:connector-curvature="0"
       sodipodi:nodetypes="cccccccccccc"
       style="display:inline;opacity:1" />
    <path
       style="display:inline;opacity:1"
       d="m 677.58274,-2226.5515 c -9.18483,13.115 -19.01248,20.6622 -19.17575,30.8942 -0.0547,3.3132 1.73433,8.9447 7.33821,10.0226 3.63571,0.6961 8.64137,-2.2503 8.7459,-8.2361 -0.0159,-1.1917 1.26025,-1.1608 1.2483,0.4722 -0.17123,4.7216 -1.66394,10.2188 -4.17269,14.6935 4.01072,0 8.02134,0 12.03207,0 -2.50876,-4.4747 -4.00147,-9.9719 -4.1727,-14.6935 -0.0119,-1.633 1.26423,-1.6639 1.2483,-0.4722 0.10454,5.9858 5.1102,8.9322 8.7459,8.2361 5.60389,-1.0779 7.39297,-6.7094 7.33821,-10.0226 -0.16327,-10.232 -9.99092,-17.7792 -19.17575,-30.8942 z"
       id="path6828-8-3"
       inkscape:connector-curvature="0"
       sodipodi:nodetypes="cccccccccccc" />
    <path
       style="display:inline;opacity:1"
       d="m 677.58274,-1980.9184 c -9.18483,-13.1151 -19.01248,-20.6623 -19.17575,-30.8942 -0.0547,-3.3133 1.73433,-8.9448 7.33821,-10.0227 3.63571,-0.6961 8.64137,2.2503 8.7459,8.2361 -0.0159,1.1918 1.26025,1.1608 1.2483,-0.4722 -0.17123,-4.7215 -1.66394,-10.2187 -4.17269,-14.6935 4.01072,0 8.02134,0 12.03207,0 -2.50876,4.4748 -4.00147,9.972 -4.1727,14.6935 -0.0119,1.633 1.26423,1.664 1.2483,0.4722 0.10454,-5.9858 5.1102,-8.9322 8.7459,-8.2361 5.60389,1.0779 7.39297,6.7094 7.33821,10.0227 -0.16327,10.2319 -9.99092,17.7791 -19.17575,30.8942 z"
       id="path6842-0-7"
       inkscape:connector-curvature="0"
       sodipodi:nodetypes="cccccccccccc" />
    <path
       style="display:inline;opacity:1"
       d="m 677.58274,-2127.6582 c -9.18483,13.115 -19.01248,20.6622 -19.17575,30.8942 -0.0547,3.3132 1.73433,8.9447 7.33821,10.0226 3.63571,0.6961 8.64137,-2.2503 8.7459,-8.2361 -0.0159,-1.1917 1.26025,-1.1608 1.2483,0.4722 -0.17123,4.7216 -1.66394,10.2188 -4.17269,14.6935 4.01072,0 8.02134,0 12.03207,0 -2.50876,-4.4747 -4.00147,-9.9719 -4.1727,-14.6935 -0.0119,-1.633 1.26423,-1.6639 1.2483,-0.4722 0.10454,5.9858 5.1102,8.9322 8.7459,8.2361 5.60389,-1.0779 7.39297,-6.7094 7.33821,-10.0226 -0.16327,-10.232 -9.99092,-17.7792 -19.17575,-30.8942 z"
       id="path6844-7-0"
       inkscape:connector-curvature="0"
       sodipodi:nodetypes="cccccccccccc" />
    <path
       d="m 572.94337,-2219.6644 2.52927,-1.8627 c 2.19506,3.5789 4.64995,5.9362 8.40531,5.5316 5.63435,-0.3877 7.96898,-6.3016 6.79017,-10.7576 -1.14039,-3.9978 -5.80588,-5.9452 -9.51514,-3.8138 -0.87548,0.5051 -1.72019,0.9176 -1.88535,0.9176 -0.38906,0 -1.26971,-1.7542 -1.14935,-2.2894 2.48944,-3.6402 8.53463,-10.0174 8.53463,-10.0174 l -9.44475,0 0,4.2706 -3.62476,0 0,-7.6628 18.45935,0 0,2.5999 c 0,0 -4.94573,5.1359 -6.5802,7.9487 4.02546,0.1474 7.27011,2.7018 8.43489,6.7401 0.67966,2.1262 0.37502,6.9894 -0.51459,9.0855 -1.48594,3.4941 -5.54475,6.329 -9.25522,6.4922 -6.22956,0.419 -9.53435,-3.9509 -11.18426,-7.1825 l 0,0 z m 0,0"
       id="path17-9-11-4"
       inkscape:connector-curvature="0"
       style="opacity:1" />
    <path
       style="display:inline;opacity:1"
       d="m 782.21993,-1987.8054 -2.52926,1.8626 c -2.19506,-3.5789 -4.64996,-5.9361 -8.40533,-5.5315 -5.63434,0.3876 -7.96898,6.3015 -6.79016,10.7575 1.14039,3.9978 5.80587,5.9453 9.51515,3.8138 0.87547,-0.5051 1.72019,-0.9175 1.88535,-0.9175 0.38905,0 1.26971,1.7541 1.14935,2.2893 -2.48945,3.6402 -8.53465,10.0175 -8.53465,10.0175 l 9.44477,0 0,-4.2706 3.62475,0 0,7.6628 -18.45936,0 0,-2.6 c 0,0 4.94573,-5.1359 6.58021,-7.9487 -4.02546,-0.1474 -7.27012,-2.7017 -8.4349,-6.74 -0.67965,-2.1262 -0.37502,-6.9894 0.5146,-9.0856 1.48594,-3.4941 5.54474,-6.329 9.25521,-6.4922 6.22958,-0.4189 9.53437,3.951 11.18427,7.1826 l 0,0 z m 0,0"
       id="path17-9-1-0-8"
       inkscape:connector-curvature="0" />
  </g>
</svg>
