<?xml version="1.0" encoding="UTF-8" standalone="no"?>
<!-- Created with Inkscape (http://www.inkscape.org/) -->

<svg
   xmlns:dc="http://purl.org/dc/elements/1.1/"
   xmlns:cc="http://creativecommons.org/ns#"
   xmlns:rdf="http://www.w3.org/1999/02/22-rdf-syntax-ns#"
   xmlns:svg="http://www.w3.org/2000/svg"
   xmlns="http://www.w3.org/2000/svg"
   xmlns:xlink="http://www.w3.org/1999/xlink"
   xmlns:sodipodi="http://sodipodi.sourceforge.net/DTD/sodipodi-0.dtd"
   xmlns:inkscape="http://www.inkscape.org/namespaces/inkscape"
   width="2.480315in"
   height="3.4645669in"
   viewBox="0 0 223.22835 311.81103"
   id="svg11376"
   version="1.1"
   inkscape:version="0.91 r13725"
   sodipodi:docname="6-HEARTS.svg">
  <defs
     id="defs11378">
    <linearGradient
       id="linearGradient3006">
      <stop
         style="stop-color:#ffffff;stop-opacity:1;"
         offset="0"
         id="stop3008" />
      <stop
         id="stop3014"
         offset="0.37675071"
         style="stop-color:#7f7f7f;stop-opacity:1;" />
      <stop
         style="stop-color:#ffffff;stop-opacity:1;"
         offset="0.80194807"
         id="stop3016" />
      <stop
         style="stop-color:#cccccc;stop-opacity:1"
         offset="1"
         id="stop3010" />
    </linearGradient>
    <linearGradient
       id="linearGradient3804">
      <stop
         style="stop-color:#000000;stop-opacity:1;"
         offset="0"
         id="stop3806" />
      <stop
         id="stop3812"
         offset="0.5"
         style="stop-color:#333333;stop-opacity:1" />
      <stop
         style="stop-color:#000000;stop-opacity:1;"
         offset="1"
         id="stop3808" />
    </linearGradient>
    <linearGradient
       id="linearGradient3851">
      <stop
         style="stop-color:#808080;stop-opacity:1;"
         offset="0"
         id="stop3853" />
      <stop
         id="stop3859"
         offset="0.5"
         style="stop-color:#ffffff;stop-opacity:1;" />
      <stop
         style="stop-color:#808080;stop-opacity:1;"
         offset="1"
         id="stop3855" />
    </linearGradient>
    <radialGradient
       inkscape:collect="always"
       xlink:href="#linearGradient3933-4-3"
       id="radialGradient3939-7-7"
       cx="44.149761"
       cy="208.92761"
       fx="44.149761"
       fy="208.92761"
       r="74.726646"
       gradientTransform="matrix(0.97241988,-0.00350785,0.00204639,0.40929875,4026.4071,-290.65137)"
       gradientUnits="userSpaceOnUse" />
    <linearGradient
       inkscape:collect="always"
       id="linearGradient3933-4-3">
      <stop
         style="stop-color:#000000;stop-opacity:1;"
         offset="0"
         id="stop3935-0-7" />
      <stop
         style="stop-color:#000000;stop-opacity:0;"
         offset="1"
         id="stop3937-9-2" />
    </linearGradient>
    <linearGradient
       inkscape:collect="always"
       xlink:href="#linearGradient3006"
       id="linearGradient3012-2-7"
       x1="81.90625"
       y1="294.38422"
       x2="178.15625"
       y2="294.38422"
       gradientUnits="userSpaceOnUse"
       gradientTransform="translate(3914.848,-255.2825)" />
    <linearGradient
       gradientTransform="translate(3914.848,-376.2825)"
       inkscape:collect="always"
       xlink:href="#linearGradient3804"
       id="linearGradient3810-9-1"
       x1="65.223801"
       y1="394.69629"
       x2="156.7487"
       y2="394.69629"
       gradientUnits="userSpaceOnUse" />
    <radialGradient
       inkscape:collect="always"
       xlink:href="#linearGradient3024-3-7"
       id="radialGradient3030-7-1"
       cx="114.59315"
       cy="428.49252"
       fx="114.59315"
       fy="428.49252"
       r="43.141743"
       gradientTransform="matrix(0.79138519,4.4166814e-8,0,0.48100739,3940.8627,-177.7307)"
       gradientUnits="userSpaceOnUse" />
    <linearGradient
       inkscape:collect="always"
       id="linearGradient3024-3-7">
      <stop
         id="stop3028-2-7"
         offset="0"
         style="stop-color:#000000;stop-opacity:1" />
      <stop
         id="stop3026-2-7"
         offset="1"
         style="stop-color:#242424;stop-opacity:1;" />
    </linearGradient>
    <linearGradient
       gradientTransform="translate(3914.848,-376.2825)"
       inkscape:collect="always"
       xlink:href="#linearGradient3933-4-3"
       id="linearGradient3113-4-7"
       gradientUnits="userSpaceOnUse"
       x1="145.60164"
       y1="375.92633"
       x2="183.7796"
       y2="390.78296" />
    <linearGradient
       gradientTransform="translate(3914.848,-376.2825)"
       inkscape:collect="always"
       xlink:href="#linearGradient3933-4-3"
       id="linearGradient3107-7-9"
       x1="113.00574"
       y1="395.66125"
       x2="116.81388"
       y2="405.19611"
       gradientUnits="userSpaceOnUse" />
    <linearGradient
       inkscape:collect="always"
       xlink:href="#linearGradient3804"
       id="linearGradient3086-3-9"
       gradientUnits="userSpaceOnUse"
       gradientTransform="matrix(0.43846429,7.9081918e-4,-6.5324466e-4,0.53080568,903.27012,-3758.3554)"
       x1="-158.78125"
       y1="459.14062"
       x2="-128.625"
       y2="459.14062" />
    <linearGradient
       inkscape:collect="always"
       xlink:href="#linearGradient3851"
       id="linearGradient3088-8-0"
       gradientUnits="userSpaceOnUse"
       gradientTransform="matrix(0.43846429,7.9081918e-4,-6.5324466e-4,0.53080568,970.15112,-3759.4954)"
       x1="-311.3125"
       y1="463.51562"
       x2="-281.15625"
       y2="463.51562" />
    <radialGradient
       inkscape:collect="always"
       xlink:href="#linearGradient3933-4-3"
       id="radialGradient3939-7-6"
       cx="44.149761"
       cy="208.92761"
       fx="44.149761"
       fy="208.92761"
       r="74.726646"
       gradientTransform="matrix(0.97241988,-0.00350785,0.00204639,0.40929875,4026.4074,-290.65146)"
       gradientUnits="userSpaceOnUse" />
    <linearGradient
       inkscape:collect="always"
       xlink:href="#linearGradient2989-6-6"
       id="linearGradient3004-8"
       gradientUnits="userSpaceOnUse"
       gradientTransform="translate(3896.2872,-468.4428)"
       x1="104.75369"
       y1="536.86133"
       x2="201.77882"
       y2="536.86133" />
    <linearGradient
       id="linearGradient2989-6-6">
      <stop
         style="stop-color:#1f1f1f;stop-opacity:1"
         offset="0"
         id="stop2991-1-5" />
      <stop
         id="stop2997-8-0"
         offset="0.5"
         style="stop-color:#000000;stop-opacity:1;" />
      <stop
         style="stop-color:#444444;stop-opacity:1"
         offset="1"
         id="stop2993-9-9" />
    </linearGradient>
    <linearGradient
       inkscape:collect="always"
       xlink:href="#linearGradient3006"
       id="linearGradient3012-2-0"
       x1="81.90625"
       y1="294.38422"
       x2="178.15625"
       y2="294.38422"
       gradientUnits="userSpaceOnUse"
       gradientTransform="translate(3914.8482,-255.28248)" />
    <linearGradient
       gradientTransform="translate(3914.8482,-376.2825)"
       inkscape:collect="always"
       xlink:href="#linearGradient3804"
       id="linearGradient3810-9-9"
       x1="65.223801"
       y1="394.69629"
       x2="156.7487"
       y2="394.69629"
       gradientUnits="userSpaceOnUse" />
    <radialGradient
       inkscape:collect="always"
       xlink:href="#linearGradient3024-3-7"
       id="radialGradient3030-7-0"
       cx="114.59315"
       cy="428.49252"
       fx="114.59315"
       fy="428.49252"
       r="43.141743"
       gradientTransform="matrix(0.79138519,4.4166814e-8,0,0.48100739,3940.8629,-177.73073)"
       gradientUnits="userSpaceOnUse" />
    <linearGradient
       gradientTransform="translate(3914.8482,-376.2825)"
       inkscape:collect="always"
       xlink:href="#linearGradient3933-4-3"
       id="linearGradient3113-4-8"
       gradientUnits="userSpaceOnUse"
       x1="145.60164"
       y1="375.92633"
       x2="183.7796"
       y2="390.78296" />
    <linearGradient
       gradientTransform="translate(3914.8482,-376.2825)"
       inkscape:collect="always"
       xlink:href="#linearGradient3933-4-3"
       id="linearGradient3107-7-3"
       x1="113.00574"
       y1="395.66125"
       x2="116.81388"
       y2="405.19611"
       gradientUnits="userSpaceOnUse" />
    <linearGradient
       inkscape:collect="always"
       xlink:href="#linearGradient3804"
       id="linearGradient3086-3-7"
       gradientUnits="userSpaceOnUse"
       gradientTransform="matrix(0.43846429,7.9081918e-4,-6.5324466e-4,0.53080568,903.2701,-3758.3555)"
       x1="-158.78125"
       y1="459.14062"
       x2="-128.625"
       y2="459.14062" />
    <linearGradient
       inkscape:collect="always"
       xlink:href="#linearGradient3851"
       id="linearGradient3088-8-1"
       gradientUnits="userSpaceOnUse"
       gradientTransform="matrix(0.43846429,7.9081918e-4,-6.5324466e-4,0.53080568,970.15118,-3759.4955)"
       x1="-311.3125"
       y1="463.51562"
       x2="-281.15625"
       y2="463.51562" />
    <pattern
       inkscape:collect="always"
       xlink:href="#pattern13545-1"
       id="pattern72508"
       patternTransform="matrix(-0.11059956,0.11059956,-0.11059956,-0.11059956,-70.743467,2137.2659)" />
    <pattern
       patternTransform="matrix(-0.11059956,0.11059956,-0.11059956,-0.11059956,-106.1174,687.64592)"
       id="pattern13545-1"
       xlink:href="#pattern13024-5" />
    <pattern
       id="pattern13024-5"
       patternTransform="translate(-254.02376,74.426221)"
       height="110.74085"
       width="108.6184"
       patternUnits="userSpaceOnUse">
      <path
         style="fill:#131f67;fill-opacity:1;stroke:none"
         id="path13016-2"
         d="m -1016.046,25.720671 -10.7642,16.120541 7.1773,18.006272 -18.6578,-5.255841 -14.9071,12.390288 -0.767,-19.36883 -16.3904,-10.348653 18.1838,-6.714754 4.7773,-18.786107 12.0052,15.218884 z"
         transform="translate(1070.3552,-11.763587)" />
      <path
         transform="matrix(0.8660254,0.5,-0.5,0.8660254,946.33909,568.72784)"
         d="m -1016.046,25.720671 -10.7642,16.120541 7.1773,18.006272 -18.6578,-5.255841 -14.9071,12.390288 -0.767,-19.36883 -16.3904,-10.348653 18.1838,-6.714754 4.7773,-18.786107 12.0052,15.218884 z"
         id="path13018-7"
         style="fill:#131f67;fill-opacity:1;stroke:none" />
      <path
         transform="translate(1124.6644,-11.763587)"
         style="fill:#131f67;fill-opacity:1;stroke:none"
         id="path13020-6"
         d="m -1016.046,25.720671 -10.7642,16.120541 7.1773,18.006272 -18.6578,-5.255841 -14.9071,12.390288 -0.767,-19.36883 -16.3904,-10.348653 18.1838,-6.714754 4.7773,-18.786107 12.0052,15.218884 z" />
      <path
         transform="matrix(0.8660254,0.5,-0.5,0.8660254,1000.6483,568.72784)"
         d="m -1016.046,25.720671 -10.7642,16.120541 7.1773,18.006272 -18.6578,-5.255841 -14.9071,12.390288 -0.767,-19.36883 -16.3904,-10.348653 18.1838,-6.714754 4.7773,-18.786107 12.0052,15.218884 z"
         id="path13022-1"
         style="fill:#131f67;fill-opacity:1;stroke:none" />
    </pattern>
    <pattern
       inkscape:collect="always"
       xlink:href="#pattern15142-1"
       id="pattern72564"
       patternTransform="matrix(0.10623121,-0.1062312,0.10623121,0.1062312,-199.21061,2428.6515)" />
    <pattern
       patternTransform="matrix(0.10623121,-0.1062312,0.10623121,0.1062312,-598.64084,979.03152)"
       id="pattern15142-1"
       xlink:href="#pattern13074-4-7" />
    <pattern
       patternTransform="matrix(0.10623121,-0.1062312,0.10623121,0.1062312,-605.82881,365.81179)"
       id="pattern13074-4-7"
       xlink:href="#pattern13064-2-4" />
    <pattern
       patternTransform="matrix(0.10623121,-0.1062312,0.10623121,0.1062312,-836.82881,38.811786)"
       id="pattern13064-2-4"
       xlink:href="#pattern8526-950-188-3-0" />
    <pattern
       patternTransform="matrix(0.10623121,-0.1062312,0.10623121,0.1062312,13.113538,22.901883)"
       id="pattern8526-950-188-3-0"
       xlink:href="#pattern8519-687-26-2-9" />
    <pattern
       patternTransform="matrix(0.10623121,-0.1062312,0.10623121,0.1062312,-23.656015,100.68363)"
       id="pattern8519-687-26-2-9"
       xlink:href="#pattern8507-266-27-2-4" />
    <pattern
       patternTransform="matrix(0.10623119,-0.10623119,0.10623119,0.10623119,194.54709,-74.729113)"
       id="pattern8507-266-27-2-4"
       xlink:href="#pattern8501-248-271-1-8" />
    <pattern
       patternTransform="matrix(0.0652057,-0.0652057,0.0652057,0.0652057,194.54709,-74.729113)"
       id="pattern8501-248-271-1-8"
       xlink:href="#pattern8475-545-163-6-8" />
    <pattern
       patternTransform="matrix(0.11006325,-0.11006325,0.11006325,0.11006325,-254.02376,74.426221)"
       id="pattern8475-545-163-6-8"
       xlink:href="#pattern8463-7-486-8-2" />
    <pattern
       id="pattern8463-7-486-8-2"
       patternTransform="translate(-254.02376,74.426221)"
       height="110.74085"
       width="108.6184"
       patternUnits="userSpaceOnUse">
      <path
         style="fill:#d40000;fill-opacity:1;stroke:none"
         id="path11396-5-4"
         d="m -1016.046,25.720671 -10.7642,16.120541 7.1773,18.006272 -18.6578,-5.255841 -14.9071,12.390288 -0.767,-19.36883 -16.3904,-10.348653 18.1838,-6.714754 4.7773,-18.786107 12.0052,15.218884 z"
         transform="translate(1070.3552,-11.763587)" />
      <path
         transform="matrix(0.8660254,0.5,-0.5,0.8660254,946.33909,568.72784)"
         d="m -1016.046,25.720671 -10.7642,16.120541 7.1773,18.006272 -18.6578,-5.255841 -14.9071,12.390288 -0.767,-19.36883 -16.3904,-10.348653 18.1838,-6.714754 4.7773,-18.786107 12.0052,15.218884 z"
         id="path11398-7-5"
         style="fill:#d40000;fill-opacity:1;stroke:none" />
      <path
         transform="translate(1124.6644,-11.763587)"
         style="fill:#d40000;fill-opacity:1;stroke:none"
         id="path11400-6-5"
         d="m -1016.046,25.720671 -10.7642,16.120541 7.1773,18.006272 -18.6578,-5.255841 -14.9071,12.390288 -0.767,-19.36883 -16.3904,-10.348653 18.1838,-6.714754 4.7773,-18.786107 12.0052,15.218884 z" />
      <path
         transform="matrix(0.8660254,0.5,-0.5,0.8660254,1000.6483,568.72784)"
         d="m -1016.046,25.720671 -10.7642,16.120541 7.1773,18.006272 -18.6578,-5.255841 -14.9071,12.390288 -0.767,-19.36883 -16.3904,-10.348653 18.1838,-6.714754 4.7773,-18.786107 12.0052,15.218884 z"
         id="path11402-1-1"
         style="fill:#d40000;fill-opacity:1;stroke:none" />
    </pattern>
  </defs>
  <sodipodi:namedview
     id="base"
     pagecolor="#ffffff"
     bordercolor="#666666"
     borderopacity="1.0"
     inkscape:pageopacity="0.0"
     inkscape:pageshadow="2"
     inkscape:zoom="0.27483805"
     inkscape:cx="234.0588"
     inkscape:cy="-253.0106"
     inkscape:document-units="px"
     inkscape:current-layer="layer1"
     showgrid="false"
     units="in"
     inkscape:window-width="1292"
     inkscape:window-height="1024"
     inkscape:window-x="631"
     inkscape:window-y="800"
     inkscape:window-maximized="0"
     fit-margin-top="0"
     fit-margin-left="0"
     fit-margin-right="0"
     fit-margin-bottom="0" />
  <metadata
     id="metadata11381">
    <rdf:RDF>
      <cc:Work
         rdf:about="">
        <dc:format>image/svg+xml</dc:format>
        <dc:type
           rdf:resource="http://purl.org/dc/dcmitype/StillImage" />
        <dc:title></dc:title>
      </cc:Work>
    </rdf:RDF>
  </metadata>
  <g
     inkscape:label="Layer 1"
     inkscape:groupmode="layer"
     id="layer1"
     transform="translate(-1349.5797,1794.7839)">
    <g
       inkscape:label="Printing Marks"
       id="printing-marks-0-11-94-9-4"
       transform="matrix(0.99553774,0,0,0.99680134,468.48764,-1457.4607)" />
    <g
       inkscape:label="Printing Marks"
       id="printing-marks-0-11-8-7-3"
       transform="matrix(0.99553774,0,0,0.99680134,732.71268,-1457.4607)" />
    <g
       style="display:inline;opacity:1"
       id="g8337-7-7-3"
       transform="matrix(0.99553774,0,0,0.99680134,1282.6816,-1108.2114)" />
    <g
       style="display:inline;opacity:1"
       id="g8337-7-1-5-1"
       transform="matrix(0.99553774,0,0,0.99680134,1546.9067,-1108.2114)" />
    <g
       id="g5701"
       inkscape:label="Printing Marks"
       transform="matrix(1.0039097,0,0,1.0069802,1005.5505,-9.6258846)" />
    <g
       inkscape:label="Printing Marks"
       id="g5747"
       transform="matrix(1.0039097,0,0,1.0069802,1289.8363,21.088361)" />
    <g
       transform="matrix(0.99553774,0,0,0.99680134,1350.0777,-1794.2852)"
       style="display:inline;opacity:1"
       id="g10024-8-8" />
    <g
       style="display:inline;opacity:1"
       id="g10030-0-6"
       transform="matrix(0.99553774,0,0,0.99680134,1376.5506,-1814.127)" />
    <path
       sodipodi:nodetypes="cccscsccc"
       inkscape:connector-curvature="0"
       style="display:inline;opacity:1;fill:#d40000"
       d="m 1367.2182,-1724.5357 c 0,0 -2.2148,-3.1796 -5.2024,-6.9179 -1.9987,-2.5017 -3.5966,-5.2105 -3.7452,-7.5438 -0.1703,-2.6653 1.4425,-5.3393 4.3625,-5.4689 2.9184,-0.1295 4.1029,2.0551 4.5851,3.8563 0.4822,-1.8012 1.6668,-3.9858 4.585,-3.8563 2.9201,0.1296 4.533,2.8036 4.3626,5.4689 -0.1485,2.3333 -1.7465,5.0421 -3.7451,7.5438 -2.9877,3.7383 -5.2025,6.9179 -5.2025,6.9179 z"
       id="path10038-5-0" />
    <path
       sodipodi:nodetypes="cccscsccc"
       inkscape:connector-curvature="0"
       style="display:inline;opacity:1;fill:#d40000"
       d="m 1555.1702,-1553.2208 c 0,0 -2.2147,3.1796 -5.2023,6.9179 -1.9988,2.5016 -3.5966,5.2105 -3.7453,7.5437 -0.1703,2.6653 1.4426,5.3393 4.3626,5.4689 2.9183,0.1295 4.1028,-2.0551 4.585,-3.8562 0.4823,1.8011 1.6669,3.9857 4.5851,3.8562 2.92,-0.1296 4.533,-2.8036 4.3625,-5.4689 -0.1485,-2.3332 -1.7464,-5.0421 -3.7451,-7.5437 -2.9877,-3.7383 -5.2025,-6.9179 -5.2025,-6.9179 z"
       id="path10040-7-6" />
    <path
       sodipodi:nodetypes="cccscsccc"
       id="path10046-1-1"
       d="m 1409.6584,-1713.8484 c 0,0 -4.6455,-7.631 -10.912,-16.603 -4.1922,-6.004 -7.5438,-12.5052 -7.8554,-18.105 -0.3574,-6.3968 3.0257,-12.8143 9.1504,-13.1253 6.1211,-0.3108 8.6056,4.9322 9.617,9.2549 1.0115,-4.3227 3.496,-9.5657 9.6171,-9.2549 6.1248,0.311 9.5078,6.7285 9.1504,13.1253 -0.3116,5.5998 -3.6632,12.101 -7.8554,18.105 -6.2665,8.972 -10.9121,16.603 -10.9121,16.603 z"
       style="display:inline;opacity:1;fill:#d40000"
       inkscape:connector-curvature="0" />
    <path
       sodipodi:nodetypes="cccscsccc"
       id="path10048-2-0"
       d="m 1512.7292,-1614.9551 c 0,0 -4.6455,-7.631 -10.912,-16.603 -4.1922,-6.004 -7.5438,-12.5052 -7.8554,-18.105 -0.3574,-6.3968 3.0257,-12.8142 9.1504,-13.1253 6.1211,-0.3108 8.6057,4.9322 9.617,9.2549 1.0115,-4.3227 3.4961,-9.5657 9.6171,-9.2549 6.1248,0.3111 9.5078,6.7285 9.1504,13.1253 -0.3116,5.5998 -3.6632,12.101 -7.8554,18.105 -6.2665,8.972 -10.9121,16.603 -10.9121,16.603 z"
       style="display:inline;opacity:1;fill:#d40000"
       inkscape:connector-curvature="0" />
    <path
       sodipodi:nodetypes="cccscsccc"
       id="path10052-3-1"
       d="m 1512.7292,-1713.8484 c 0,0 -4.6455,-7.631 -10.912,-16.603 -4.1922,-6.004 -7.5438,-12.5052 -7.8554,-18.105 -0.3574,-6.3968 3.0257,-12.8143 9.1504,-13.1253 6.1211,-0.3108 8.6057,4.9322 9.617,9.2549 1.0115,-4.3227 3.4961,-9.5657 9.6171,-9.2549 6.1248,0.311 9.5078,6.7285 9.1504,13.1253 -0.3116,5.5998 -3.6632,12.101 -7.8554,18.105 -6.2665,8.972 -10.9121,16.603 -10.9121,16.603 z"
       style="display:inline;opacity:1;fill:#d40000"
       inkscape:connector-curvature="0" />
    <path
       sodipodi:nodetypes="cccscsccc"
       id="path10056-4-2"
       d="m 1409.6584,-1614.9551 c 0,0 -4.6455,-7.631 -10.912,-16.603 -4.1922,-6.004 -7.5438,-12.5052 -7.8554,-18.105 -0.3574,-6.3968 3.0257,-12.8142 9.1504,-13.1253 6.1211,-0.3108 8.6056,4.9322 9.617,9.2549 1.0115,-4.3227 3.496,-9.5657 9.6171,-9.2549 6.1248,0.3111 9.5078,6.7285 9.1504,13.1253 -0.3116,5.5998 -3.6632,12.101 -7.8554,18.105 -6.2665,8.972 -10.9121,16.603 -10.9121,16.603 z"
       style="display:inline;opacity:1;fill:#d40000"
       inkscape:connector-curvature="0" />
    <path
       sodipodi:nodetypes="cccscsccc"
       inkscape:connector-curvature="0"
       style="display:inline;opacity:1;fill:#d40000"
       d="m 1512.7292,-1563.9083 c 0,0 -4.6455,7.631 -10.912,16.603 -4.1922,6.004 -7.5438,12.5052 -7.8554,18.105 -0.3574,6.3968 3.0257,12.8143 9.1504,13.1253 6.1211,0.3109 8.6057,-4.9322 9.617,-9.2549 1.0115,4.3227 3.4961,9.5658 9.6171,9.2549 6.1248,-0.311 9.5078,-6.7285 9.1504,-13.1253 -0.3116,-5.5998 -3.6632,-12.101 -7.8554,-18.105 -6.2665,-8.972 -10.9121,-16.603 -10.9121,-16.603 z"
       id="path10066-9-2" />
    <path
       sodipodi:nodetypes="cccscsccc"
       id="path10068-1-2"
       d="m 1409.6584,-1563.9083 c 0,0 -4.6455,7.631 -10.912,16.603 -4.1922,6.004 -7.5438,12.5052 -7.8554,18.105 -0.3574,6.3968 3.0257,12.8143 9.1504,13.1253 6.1211,0.3109 8.6056,-4.9322 9.617,-9.2549 1.0115,4.3227 3.496,9.5658 9.6171,9.2549 6.1248,-0.311 9.5078,-6.7285 9.1504,-13.1253 -0.3116,-5.5998 -3.6632,-12.101 -7.8554,-18.105 -6.2665,-8.972 -10.9121,-16.603 -10.9121,-16.603 z"
       style="display:inline;opacity:1;fill:#d40000;stroke:none;stroke-opacity:1"
       inkscape:connector-curvature="0" />
    <path
       d="m 1357.569,-1757.7171 c -0.4045,-2.7686 -0.3942,-9.9256 -0.064,-12.0428 1.0201,-6.4861 3.4943,-9.4543 7.6387,-10.4229 4.0254,-0.9437 9.6803,0.1071 10.9205,5.528 l -3.365,0.065 c -1.82,-3.6652 -6.4253,-2.6863 -9.0198,-1.0912 -2.0696,1.27 -3.0053,6.5735 -2.6047,6.8999 0,0 3.9142,-2.903 7.0001,-2.689 6.5943,0.6879 9.3142,6.4143 9.0837,11.8209 -0.2098,6.5044 -2.2693,11.706 -9.2591,12.0519 -6.6455,-0.2572 -9.6904,-3.8847 -10.3304,-10.12 l 0,0 z m 16.3897,-1.7177 c 0.036,-4.5126 -2.0095,-7.8946 -5.8839,-8.2653 -3.8705,-0.3733 -7.7757,3.4094 -7.5056,8.0094 0.2701,4.6195 2.0556,8.5054 6.7504,8.4845 5.0494,-0.02 6.6148,-5.0163 6.6391,-8.2286 l 0,0 z m 0,0"
       id="path23-5-2-7-3"
       inkscape:connector-curvature="0"
       style="opacity:1;fill:#d40000;fill-opacity:1;stroke-width:1;stroke-miterlimit:4;stroke-dasharray:none" />
    <path
       d="m 1564.8166,-1520.0396 c 0.4045,2.7686 0.3941,9.9257 0.064,12.0429 -1.0201,6.4861 -3.4942,9.4542 -7.6388,10.4228 -4.0254,0.9438 -9.6803,-0.107 -10.9205,-5.5279 l 3.365,-0.065 c 1.8202,3.6652 6.4254,2.6863 9.0199,1.0912 2.0696,-1.27 3.0052,-6.5735 2.6046,-6.8999 0,0 -3.9141,2.903 -7.0001,2.689 -6.5942,-0.6879 -9.3142,-6.4143 -9.0837,-11.8209 0.2099,-6.5044 2.2693,-11.706 9.2591,-12.0519 6.6456,0.2572 9.6905,3.8846 10.3305,10.12 l 0,0 z m -16.3897,1.7178 c -0.036,4.5125 2.0094,7.8946 5.8839,8.2653 3.8704,0.3733 7.7756,-3.4095 7.5055,-8.0094 -0.27,-4.6195 -2.0554,-8.5054 -6.7503,-8.4845 -5.0494,0.02 -6.6148,5.0163 -6.6391,8.2286 l 0,0 z m 0,0"
       id="path23-6-5-1-7-1"
       inkscape:connector-curvature="0"
       style="opacity:1;fill:#d40000;fill-opacity:1" />
  </g>
</svg>
