<?xml version="1.0" encoding="UTF-8" standalone="no"?>
<!-- Created with Inkscape (http://www.inkscape.org/) -->

<svg
   xmlns:dc="http://purl.org/dc/elements/1.1/"
   xmlns:cc="http://creativecommons.org/ns#"
   xmlns:rdf="http://www.w3.org/1999/02/22-rdf-syntax-ns#"
   xmlns:svg="http://www.w3.org/2000/svg"
   xmlns="http://www.w3.org/2000/svg"
   xmlns:xlink="http://www.w3.org/1999/xlink"
   xmlns:sodipodi="http://sodipodi.sourceforge.net/DTD/sodipodi-0.dtd"
   xmlns:inkscape="http://www.inkscape.org/namespaces/inkscape"
   width="2.480315in"
   height="3.4645669in"
   viewBox="0 0 223.22835 311.81103"
   id="svg11376"
   version="1.1"
   inkscape:version="0.91 r13725"
   sodipodi:docname="8-HEARTS.svg">
  <defs
     id="defs11378">
    <linearGradient
       id="linearGradient3006">
      <stop
         style="stop-color:#ffffff;stop-opacity:1;"
         offset="0"
         id="stop3008" />
      <stop
         id="stop3014"
         offset="0.37675071"
         style="stop-color:#7f7f7f;stop-opacity:1;" />
      <stop
         style="stop-color:#ffffff;stop-opacity:1;"
         offset="0.80194807"
         id="stop3016" />
      <stop
         style="stop-color:#cccccc;stop-opacity:1"
         offset="1"
         id="stop3010" />
    </linearGradient>
    <linearGradient
       id="linearGradient3804">
      <stop
         style="stop-color:#000000;stop-opacity:1;"
         offset="0"
         id="stop3806" />
      <stop
         id="stop3812"
         offset="0.5"
         style="stop-color:#333333;stop-opacity:1" />
      <stop
         style="stop-color:#000000;stop-opacity:1;"
         offset="1"
         id="stop3808" />
    </linearGradient>
    <linearGradient
       id="linearGradient3851">
      <stop
         style="stop-color:#808080;stop-opacity:1;"
         offset="0"
         id="stop3853" />
      <stop
         id="stop3859"
         offset="0.5"
         style="stop-color:#ffffff;stop-opacity:1;" />
      <stop
         style="stop-color:#808080;stop-opacity:1;"
         offset="1"
         id="stop3855" />
    </linearGradient>
    <radialGradient
       inkscape:collect="always"
       xlink:href="#linearGradient3933-4-3"
       id="radialGradient3939-7-7"
       cx="44.149761"
       cy="208.92761"
       fx="44.149761"
       fy="208.92761"
       r="74.726646"
       gradientTransform="matrix(0.97241988,-0.00350785,0.00204639,0.40929875,4026.4071,-290.65137)"
       gradientUnits="userSpaceOnUse" />
    <linearGradient
       inkscape:collect="always"
       id="linearGradient3933-4-3">
      <stop
         style="stop-color:#000000;stop-opacity:1;"
         offset="0"
         id="stop3935-0-7" />
      <stop
         style="stop-color:#000000;stop-opacity:0;"
         offset="1"
         id="stop3937-9-2" />
    </linearGradient>
    <linearGradient
       inkscape:collect="always"
       xlink:href="#linearGradient3006"
       id="linearGradient3012-2-7"
       x1="81.90625"
       y1="294.38422"
       x2="178.15625"
       y2="294.38422"
       gradientUnits="userSpaceOnUse"
       gradientTransform="translate(3914.848,-255.2825)" />
    <linearGradient
       gradientTransform="translate(3914.848,-376.2825)"
       inkscape:collect="always"
       xlink:href="#linearGradient3804"
       id="linearGradient3810-9-1"
       x1="65.223801"
       y1="394.69629"
       x2="156.7487"
       y2="394.69629"
       gradientUnits="userSpaceOnUse" />
    <radialGradient
       inkscape:collect="always"
       xlink:href="#linearGradient3024-3-7"
       id="radialGradient3030-7-1"
       cx="114.59315"
       cy="428.49252"
       fx="114.59315"
       fy="428.49252"
       r="43.141743"
       gradientTransform="matrix(0.79138519,4.4166814e-8,0,0.48100739,3940.8627,-177.7307)"
       gradientUnits="userSpaceOnUse" />
    <linearGradient
       inkscape:collect="always"
       id="linearGradient3024-3-7">
      <stop
         id="stop3028-2-7"
         offset="0"
         style="stop-color:#000000;stop-opacity:1" />
      <stop
         id="stop3026-2-7"
         offset="1"
         style="stop-color:#242424;stop-opacity:1;" />
    </linearGradient>
    <linearGradient
       gradientTransform="translate(3914.848,-376.2825)"
       inkscape:collect="always"
       xlink:href="#linearGradient3933-4-3"
       id="linearGradient3113-4-7"
       gradientUnits="userSpaceOnUse"
       x1="145.60164"
       y1="375.92633"
       x2="183.7796"
       y2="390.78296" />
    <linearGradient
       gradientTransform="translate(3914.848,-376.2825)"
       inkscape:collect="always"
       xlink:href="#linearGradient3933-4-3"
       id="linearGradient3107-7-9"
       x1="113.00574"
       y1="395.66125"
       x2="116.81388"
       y2="405.19611"
       gradientUnits="userSpaceOnUse" />
    <linearGradient
       inkscape:collect="always"
       xlink:href="#linearGradient3804"
       id="linearGradient3086-3-9"
       gradientUnits="userSpaceOnUse"
       gradientTransform="matrix(0.43846429,7.9081918e-4,-6.5324466e-4,0.53080568,903.27012,-3758.3554)"
       x1="-158.78125"
       y1="459.14062"
       x2="-128.625"
       y2="459.14062" />
    <linearGradient
       inkscape:collect="always"
       xlink:href="#linearGradient3851"
       id="linearGradient3088-8-0"
       gradientUnits="userSpaceOnUse"
       gradientTransform="matrix(0.43846429,7.9081918e-4,-6.5324466e-4,0.53080568,970.15112,-3759.4954)"
       x1="-311.3125"
       y1="463.51562"
       x2="-281.15625"
       y2="463.51562" />
    <radialGradient
       inkscape:collect="always"
       xlink:href="#linearGradient3933-4-3"
       id="radialGradient3939-7-6"
       cx="44.149761"
       cy="208.92761"
       fx="44.149761"
       fy="208.92761"
       r="74.726646"
       gradientTransform="matrix(0.97241988,-0.00350785,0.00204639,0.40929875,4026.4074,-290.65146)"
       gradientUnits="userSpaceOnUse" />
    <linearGradient
       inkscape:collect="always"
       xlink:href="#linearGradient2989-6-6"
       id="linearGradient3004-8"
       gradientUnits="userSpaceOnUse"
       gradientTransform="translate(3896.2872,-468.4428)"
       x1="104.75369"
       y1="536.86133"
       x2="201.77882"
       y2="536.86133" />
    <linearGradient
       id="linearGradient2989-6-6">
      <stop
         style="stop-color:#1f1f1f;stop-opacity:1"
         offset="0"
         id="stop2991-1-5" />
      <stop
         id="stop2997-8-0"
         offset="0.5"
         style="stop-color:#000000;stop-opacity:1;" />
      <stop
         style="stop-color:#444444;stop-opacity:1"
         offset="1"
         id="stop2993-9-9" />
    </linearGradient>
    <linearGradient
       inkscape:collect="always"
       xlink:href="#linearGradient3006"
       id="linearGradient3012-2-0"
       x1="81.90625"
       y1="294.38422"
       x2="178.15625"
       y2="294.38422"
       gradientUnits="userSpaceOnUse"
       gradientTransform="translate(3914.8482,-255.28248)" />
    <linearGradient
       gradientTransform="translate(3914.8482,-376.2825)"
       inkscape:collect="always"
       xlink:href="#linearGradient3804"
       id="linearGradient3810-9-9"
       x1="65.223801"
       y1="394.69629"
       x2="156.7487"
       y2="394.69629"
       gradientUnits="userSpaceOnUse" />
    <radialGradient
       inkscape:collect="always"
       xlink:href="#linearGradient3024-3-7"
       id="radialGradient3030-7-0"
       cx="114.59315"
       cy="428.49252"
       fx="114.59315"
       fy="428.49252"
       r="43.141743"
       gradientTransform="matrix(0.79138519,4.4166814e-8,0,0.48100739,3940.8629,-177.73073)"
       gradientUnits="userSpaceOnUse" />
    <linearGradient
       gradientTransform="translate(3914.8482,-376.2825)"
       inkscape:collect="always"
       xlink:href="#linearGradient3933-4-3"
       id="linearGradient3113-4-8"
       gradientUnits="userSpaceOnUse"
       x1="145.60164"
       y1="375.92633"
       x2="183.7796"
       y2="390.78296" />
    <linearGradient
       gradientTransform="translate(3914.8482,-376.2825)"
       inkscape:collect="always"
       xlink:href="#linearGradient3933-4-3"
       id="linearGradient3107-7-3"
       x1="113.00574"
       y1="395.66125"
       x2="116.81388"
       y2="405.19611"
       gradientUnits="userSpaceOnUse" />
    <linearGradient
       inkscape:collect="always"
       xlink:href="#linearGradient3804"
       id="linearGradient3086-3-7"
       gradientUnits="userSpaceOnUse"
       gradientTransform="matrix(0.43846429,7.9081918e-4,-6.5324466e-4,0.53080568,903.2701,-3758.3555)"
       x1="-158.78125"
       y1="459.14062"
       x2="-128.625"
       y2="459.14062" />
    <linearGradient
       inkscape:collect="always"
       xlink:href="#linearGradient3851"
       id="linearGradient3088-8-1"
       gradientUnits="userSpaceOnUse"
       gradientTransform="matrix(0.43846429,7.9081918e-4,-6.5324466e-4,0.53080568,970.15118,-3759.4955)"
       x1="-311.3125"
       y1="463.51562"
       x2="-281.15625"
       y2="463.51562" />
    <pattern
       inkscape:collect="always"
       xlink:href="#pattern13545-1"
       id="pattern72508"
       patternTransform="matrix(-0.11059956,0.11059956,-0.11059956,-0.11059956,-70.743467,2137.2659)" />
    <pattern
       patternTransform="matrix(-0.11059956,0.11059956,-0.11059956,-0.11059956,-106.1174,687.64592)"
       id="pattern13545-1"
       xlink:href="#pattern13024-5" />
    <pattern
       id="pattern13024-5"
       patternTransform="translate(-254.02376,74.426221)"
       height="110.74085"
       width="108.6184"
       patternUnits="userSpaceOnUse">
      <path
         style="fill:#131f67;fill-opacity:1;stroke:none"
         id="path13016-2"
         d="m -1016.046,25.720671 -10.7642,16.120541 7.1773,18.006272 -18.6578,-5.255841 -14.9071,12.390288 -0.767,-19.36883 -16.3904,-10.348653 18.1838,-6.714754 4.7773,-18.786107 12.0052,15.218884 z"
         transform="translate(1070.3552,-11.763587)" />
      <path
         transform="matrix(0.8660254,0.5,-0.5,0.8660254,946.33909,568.72784)"
         d="m -1016.046,25.720671 -10.7642,16.120541 7.1773,18.006272 -18.6578,-5.255841 -14.9071,12.390288 -0.767,-19.36883 -16.3904,-10.348653 18.1838,-6.714754 4.7773,-18.786107 12.0052,15.218884 z"
         id="path13018-7"
         style="fill:#131f67;fill-opacity:1;stroke:none" />
      <path
         transform="translate(1124.6644,-11.763587)"
         style="fill:#131f67;fill-opacity:1;stroke:none"
         id="path13020-6"
         d="m -1016.046,25.720671 -10.7642,16.120541 7.1773,18.006272 -18.6578,-5.255841 -14.9071,12.390288 -0.767,-19.36883 -16.3904,-10.348653 18.1838,-6.714754 4.7773,-18.786107 12.0052,15.218884 z" />
      <path
         transform="matrix(0.8660254,0.5,-0.5,0.8660254,1000.6483,568.72784)"
         d="m -1016.046,25.720671 -10.7642,16.120541 7.1773,18.006272 -18.6578,-5.255841 -14.9071,12.390288 -0.767,-19.36883 -16.3904,-10.348653 18.1838,-6.714754 4.7773,-18.786107 12.0052,15.218884 z"
         id="path13022-1"
         style="fill:#131f67;fill-opacity:1;stroke:none" />
    </pattern>
    <pattern
       inkscape:collect="always"
       xlink:href="#pattern15142-1"
       id="pattern72564"
       patternTransform="matrix(0.10623121,-0.1062312,0.10623121,0.1062312,-199.21061,2428.6515)" />
    <pattern
       patternTransform="matrix(0.10623121,-0.1062312,0.10623121,0.1062312,-598.64084,979.03152)"
       id="pattern15142-1"
       xlink:href="#pattern13074-4-7" />
    <pattern
       patternTransform="matrix(0.10623121,-0.1062312,0.10623121,0.1062312,-605.82881,365.81179)"
       id="pattern13074-4-7"
       xlink:href="#pattern13064-2-4" />
    <pattern
       patternTransform="matrix(0.10623121,-0.1062312,0.10623121,0.1062312,-836.82881,38.811786)"
       id="pattern13064-2-4"
       xlink:href="#pattern8526-950-188-3-0" />
    <pattern
       patternTransform="matrix(0.10623121,-0.1062312,0.10623121,0.1062312,13.113538,22.901883)"
       id="pattern8526-950-188-3-0"
       xlink:href="#pattern8519-687-26-2-9" />
    <pattern
       patternTransform="matrix(0.10623121,-0.1062312,0.10623121,0.1062312,-23.656015,100.68363)"
       id="pattern8519-687-26-2-9"
       xlink:href="#pattern8507-266-27-2-4" />
    <pattern
       patternTransform="matrix(0.10623119,-0.10623119,0.10623119,0.10623119,194.54709,-74.729113)"
       id="pattern8507-266-27-2-4"
       xlink:href="#pattern8501-248-271-1-8" />
    <pattern
       patternTransform="matrix(0.0652057,-0.0652057,0.0652057,0.0652057,194.54709,-74.729113)"
       id="pattern8501-248-271-1-8"
       xlink:href="#pattern8475-545-163-6-8" />
    <pattern
       patternTransform="matrix(0.11006325,-0.11006325,0.11006325,0.11006325,-254.02376,74.426221)"
       id="pattern8475-545-163-6-8"
       xlink:href="#pattern8463-7-486-8-2" />
    <pattern
       id="pattern8463-7-486-8-2"
       patternTransform="translate(-254.02376,74.426221)"
       height="110.74085"
       width="108.6184"
       patternUnits="userSpaceOnUse">
      <path
         style="fill:#d40000;fill-opacity:1;stroke:none"
         id="path11396-5-4"
         d="m -1016.046,25.720671 -10.7642,16.120541 7.1773,18.006272 -18.6578,-5.255841 -14.9071,12.390288 -0.767,-19.36883 -16.3904,-10.348653 18.1838,-6.714754 4.7773,-18.786107 12.0052,15.218884 z"
         transform="translate(1070.3552,-11.763587)" />
      <path
         transform="matrix(0.8660254,0.5,-0.5,0.8660254,946.33909,568.72784)"
         d="m -1016.046,25.720671 -10.7642,16.120541 7.1773,18.006272 -18.6578,-5.255841 -14.9071,12.390288 -0.767,-19.36883 -16.3904,-10.348653 18.1838,-6.714754 4.7773,-18.786107 12.0052,15.218884 z"
         id="path11398-7-5"
         style="fill:#d40000;fill-opacity:1;stroke:none" />
      <path
         transform="translate(1124.6644,-11.763587)"
         style="fill:#d40000;fill-opacity:1;stroke:none"
         id="path11400-6-5"
         d="m -1016.046,25.720671 -10.7642,16.120541 7.1773,18.006272 -18.6578,-5.255841 -14.9071,12.390288 -0.767,-19.36883 -16.3904,-10.348653 18.1838,-6.714754 4.7773,-18.786107 12.0052,15.218884 z" />
      <path
         transform="matrix(0.8660254,0.5,-0.5,0.8660254,1000.6483,568.72784)"
         d="m -1016.046,25.720671 -10.7642,16.120541 7.1773,18.006272 -18.6578,-5.255841 -14.9071,12.390288 -0.767,-19.36883 -16.3904,-10.348653 18.1838,-6.714754 4.7773,-18.786107 12.0052,15.218884 z"
         id="path11402-1-1"
         style="fill:#d40000;fill-opacity:1;stroke:none" />
    </pattern>
  </defs>
  <sodipodi:namedview
     id="base"
     pagecolor="#ffffff"
     bordercolor="#666666"
     borderopacity="1.0"
     inkscape:pageopacity="0.0"
     inkscape:pageshadow="2"
     inkscape:zoom="0.27483805"
     inkscape:cx="-120.46961"
     inkscape:cy="60.889032"
     inkscape:document-units="px"
     inkscape:current-layer="layer1"
     showgrid="false"
     units="in"
     inkscape:window-width="1292"
     inkscape:window-height="1024"
     inkscape:window-x="631"
     inkscape:window-y="800"
     inkscape:window-maximized="0"
     fit-margin-top="0"
     fit-margin-left="0"
     fit-margin-right="0"
     fit-margin-bottom="0" />
  <metadata
     id="metadata11381">
    <rdf:RDF>
      <cc:Work
         rdf:about="">
        <dc:format>image/svg+xml</dc:format>
        <dc:type
           rdf:resource="http://purl.org/dc/dcmitype/StillImage" />
        <dc:title></dc:title>
      </cc:Work>
    </rdf:RDF>
  </metadata>
  <g
     inkscape:label="Layer 1"
     inkscape:groupmode="layer"
     id="layer1"
     transform="translate(-1876.0364,1442.9723)">
    <g
       inkscape:label="Printing Marks"
       id="printing-marks-0-11-94-9-4"
       transform="matrix(0.99553774,0,0,0.99680134,468.48764,-1457.4607)" />
    <g
       inkscape:label="Printing Marks"
       id="printing-marks-0-11-8-7-3"
       transform="matrix(0.99553774,0,0,0.99680134,732.71268,-1457.4607)" />
    <g
       style="display:inline;opacity:1"
       id="g8337-7-7-3"
       transform="matrix(0.99553774,0,0,0.99680134,1282.6816,-1108.2114)" />
    <g
       style="display:inline;opacity:1"
       id="g8337-7-1-5-1"
       transform="matrix(0.99553774,0,0,0.99680134,1546.9067,-1108.2114)" />
    <g
       id="g5701"
       inkscape:label="Printing Marks"
       transform="matrix(1.0039097,0,0,1.0069802,1005.5505,-9.6258846)" />
    <g
       inkscape:label="Printing Marks"
       id="g5747"
       transform="matrix(1.0039097,0,0,1.0069802,1289.8363,21.088361)" />
    <path
       style="display:inline;opacity:1"
       sodipodi:nodetypes="cccccccccccc"
       inkscape:connector-curvature="0"
       id="path7155-4-0"
       d="m 1936.1151,-1409.8833 c -9.1848,13.115 -19.0125,20.6623 -19.1758,30.8942 -0.055,3.3133 1.7344,8.9447 7.3383,10.0226 3.6357,0.6961 8.6413,-2.2502 8.7459,-8.2361 -0.016,-1.1917 1.2602,-1.1607 1.2483,0.4722 -0.1713,4.7216 -1.664,10.2188 -4.1727,14.6936 4.0107,0 8.0213,0 12.032,0 -2.5087,-4.4748 -4.0014,-9.972 -4.1727,-14.6936 -0.012,-1.6329 1.2643,-1.6639 1.2483,-0.4722 0.1046,5.9859 5.1102,8.9322 8.7459,8.2361 5.6039,-1.0779 7.393,-6.7093 7.3382,-10.0226 -0.1632,-10.2319 -9.9909,-17.7792 -19.1757,-30.8942 z" />
    <path
       style="display:inline;opacity:1"
       sodipodi:nodetypes="cccccccccccc"
       inkscape:connector-curvature="0"
       id="path7157-2-9"
       d="m 1893.6748,-1392.6602 c -4.2913,5.4647 -8.883,8.6093 -8.9592,12.8726 -0.026,1.3805 0.8103,3.727 3.4285,4.1761 1.6987,0.2901 4.0374,-0.9376 4.0863,-3.4317 -0.01,-0.4965 0.5888,-0.4836 0.5832,0.1968 -0.08,1.9673 -0.7774,4.2578 -1.9496,6.1223 1.8739,0 3.7477,0 5.6216,0 -1.1721,-1.8645 -1.8696,-4.155 -1.9495,-6.1223 -0.01,-0.6804 0.5906,-0.6933 0.5832,-0.1968 0.049,2.4941 2.3875,3.7218 4.0862,3.4317 2.6183,-0.4491 3.4542,-2.7956 3.4286,-4.1761 -0.077,-4.2633 -4.668,-7.4079 -8.9593,-12.8726 z" />
    <path
       style="display:inline;opacity:1"
       sodipodi:nodetypes="cccccccccccc"
       inkscape:connector-curvature="0"
       id="path7162-7-0"
       d="m 2081.6269,-1181.4732 c -4.2914,-5.4646 -8.883,-8.6093 -8.9593,-12.8726 -0.026,-1.3805 0.8103,-3.7269 3.4286,-4.1761 1.6987,-0.29 4.0374,0.9376 4.0863,3.4317 -0.01,0.4966 0.5887,0.4837 0.5831,-0.1967 -0.08,-1.9673 -0.7774,-4.2578 -1.9495,-6.1223 1.8739,0 3.7477,0 5.6216,0 -1.1722,1.8645 -1.8696,4.155 -1.9496,6.1223 -0.01,0.6804 0.5907,0.6933 0.5832,0.1967 0.049,-2.4941 2.3876,-3.7217 4.0863,-3.4317 2.6182,0.4492 3.4541,2.7956 3.4285,4.1761 -0.077,4.2633 -4.668,7.408 -8.9592,12.8726 z" />
    <path
       sodipodi:nodetypes="cccccccccccc"
       inkscape:connector-curvature="0"
       id="path7164-8-3"
       d="m 2039.1859,-1409.8833 c -9.1848,13.115 -19.0125,20.6623 -19.1757,30.8942 -0.055,3.3133 1.7343,8.9447 7.3382,10.0226 3.6357,0.6961 8.6413,-2.2502 8.7459,-8.2361 -0.016,-1.1917 1.2602,-1.1607 1.2483,0.4722 -0.1713,4.7216 -1.664,10.2188 -4.1727,14.6936 4.0107,0 8.0213,0 12.032,0 -2.5087,-4.4748 -4.0014,-9.972 -4.1727,-14.6936 -0.012,-1.6329 1.2643,-1.6639 1.2483,-0.4722 0.1046,5.9859 5.1102,8.9322 8.7459,8.2361 5.6039,-1.0779 7.393,-6.7093 7.3383,-10.0226 -0.1633,-10.2319 -9.991,-17.7792 -19.1758,-30.8942 z"
       style="display:inline;opacity:1" />
    <path
       sodipodi:nodetypes="cccccccccccc"
       inkscape:connector-curvature="0"
       id="path7168-3-2"
       d="m 1987.6505,-1360.4367 c -9.1848,13.115 -19.0125,20.6623 -19.1757,30.8942 -0.055,3.3133 1.7343,8.9447 7.3382,10.0226 3.6357,0.6961 8.6413,-2.2502 8.7459,-8.2361 -0.016,-1.1917 1.2602,-1.1607 1.2483,0.4722 -0.1713,4.7216 -1.664,10.2188 -4.1727,14.6936 4.0107,0 8.0213,0 12.032,0 -2.5087,-4.4748 -4.0014,-9.972 -4.1727,-14.6936 -0.012,-1.6329 1.2643,-1.6639 1.2483,-0.4722 0.1046,5.9859 5.1102,8.9322 8.7459,8.2361 5.6039,-1.0779 7.393,-6.7093 7.3383,-10.0226 -0.1633,-10.2319 -9.991,-17.7792 -19.1758,-30.8942 z"
       style="display:inline;opacity:1" />
    <path
       sodipodi:nodetypes="cccccccccccc"
       inkscape:connector-curvature="0"
       id="path7174-5-0"
       d="m 1936.1151,-1310.99 c -9.1848,13.1151 -19.0125,20.6623 -19.1758,30.8942 -0.055,3.3133 1.7344,8.9447 7.3383,10.0226 3.6357,0.6961 8.6413,-2.2502 8.7459,-8.2361 -0.016,-1.1917 1.2602,-1.1607 1.2483,0.4722 -0.1713,4.7216 -1.664,10.2188 -4.1727,14.6936 4.0107,0 8.0213,0 12.032,0 -2.5087,-4.4748 -4.0014,-9.972 -4.1727,-14.6936 -0.012,-1.6329 1.2643,-1.6639 1.2483,-0.4722 0.1046,5.9859 5.1102,8.9322 8.7459,8.2361 5.6039,-1.0779 7.393,-6.7093 7.3382,-10.0226 -0.1632,-10.2319 -9.9909,-17.7791 -19.1757,-30.8942 z"
       style="display:inline;opacity:1" />
    <path
       sodipodi:nodetypes="cccccccccccc"
       inkscape:connector-curvature="0"
       id="path7176-7-0"
       d="m 1936.1151,-1164.2502 c -9.1848,-13.115 -19.0125,-20.6623 -19.1758,-30.8942 -0.055,-3.3133 1.7344,-8.9447 7.3383,-10.0226 3.6357,-0.6961 8.6413,2.2503 8.7459,8.2361 -0.016,1.1917 1.2602,1.1607 1.2483,-0.4722 -0.1713,-4.7216 -1.664,-10.2188 -4.1727,-14.6936 4.0107,0 8.0213,0 12.032,0 -2.5087,4.4748 -4.0014,9.972 -4.1727,14.6936 -0.012,1.6329 1.2643,1.6639 1.2483,0.4722 0.1046,-5.9858 5.1102,-8.9322 8.7459,-8.2361 5.6039,1.0779 7.393,6.7093 7.3382,10.0226 -0.1632,10.2319 -9.9909,17.7792 -19.1757,30.8942 z"
       style="display:inline;opacity:1" />
    <path
       sodipodi:nodetypes="cccccccccccc"
       inkscape:connector-curvature="0"
       id="path7178-9-4"
       d="m 2039.1859,-1164.2502 c -9.1848,-13.115 -19.0125,-20.6623 -19.1757,-30.8942 -0.055,-3.3133 1.7343,-8.9447 7.3382,-10.0226 3.6357,-0.6961 8.6413,2.2503 8.7459,8.2361 -0.016,1.1917 1.2602,1.1607 1.2483,-0.4722 -0.1713,-4.7216 -1.664,-10.2188 -4.1727,-14.6936 4.0107,0 8.0213,0 12.032,0 -2.5087,4.4748 -4.0014,9.972 -4.1727,14.6936 -0.012,1.6329 1.2643,1.6639 1.2483,0.4722 0.1046,-5.9858 5.1102,-8.9322 8.7459,-8.2361 5.6039,1.0779 7.393,6.7093 7.3383,10.0226 -0.1633,10.2319 -9.991,17.7792 -19.1758,30.8942 z"
       style="display:inline;opacity:1" />
    <path
       sodipodi:nodetypes="cccccccccccc"
       inkscape:connector-curvature="0"
       id="path7180-5-1"
       d="m 1987.6505,-1213.6968 c -9.1848,-13.115 -19.0125,-20.6623 -19.1757,-30.8942 -0.055,-3.3133 1.7343,-8.9447 7.3382,-10.0226 3.6357,-0.6961 8.6413,2.2503 8.7459,8.2361 -0.016,1.1917 1.2602,1.1607 1.2483,-0.4722 -0.1713,-4.7216 -1.664,-10.2188 -4.1727,-14.6936 4.0107,0 8.0213,0 12.032,0 -2.5087,4.4748 -4.0014,9.972 -4.1727,14.6936 -0.012,1.6329 1.2643,1.6639 1.2483,0.4722 0.1046,-5.9858 5.1102,-8.9322 8.7459,-8.2361 5.6039,1.0779 7.393,6.7093 7.3383,10.0226 -0.1633,10.2319 -9.991,17.7792 -19.1758,30.8942 z"
       style="display:inline;opacity:1" />
    <path
       sodipodi:nodetypes="cccccccccccc"
       inkscape:connector-curvature="0"
       id="path7189-7-7"
       d="m 2039.1859,-1310.99 c -9.1848,13.1151 -19.0125,20.6623 -19.1757,30.8942 -0.055,3.3133 1.7343,8.9447 7.3382,10.0226 3.6357,0.6961 8.6413,-2.2502 8.7459,-8.2361 -0.016,-1.1917 1.2602,-1.1607 1.2483,0.4722 -0.1713,4.7216 -1.664,10.2188 -4.1727,14.6936 4.0107,0 8.0213,0 12.032,0 -2.5087,-4.4748 -4.0014,-9.972 -4.1727,-14.6936 -0.012,-1.6329 1.2643,-1.6639 1.2483,-0.4722 0.1046,5.9859 5.1102,8.9322 8.7459,8.2361 5.6039,-1.0779 7.393,-6.7093 7.3383,-10.0226 -0.1633,-10.2319 -9.991,-17.7791 -19.1758,-30.8942 z"
       style="display:inline;opacity:1" />
    <path
       d="m 1883.0016,-1405.421 c 0.1561,-4.4158 1.7509,-6.0723 4.8906,-8.3827 -2.5048,-1.8092 -3.5608,-4.4759 -3.3458,-6.7459 0.5158,-5.4967 4.755,-8.2444 9.3808,-8.1269 4.6295,0.1227 8.614,3.7971 8.925,7.7914 0.2701,3.4722 -0.7603,5.1482 -3.2204,6.9743 2.9196,2.4684 4.7845,4.0896 4.7154,8.4389 -0.069,4.3493 -3.7643,9.5249 -10.2051,9.6829 -6.4406,0.1579 -11.3006,-5.2161 -11.1405,-9.632 l 0,0 z m 17.9794,0.016 c 0.2751,-3.9981 -3.2549,-6.6949 -7.2395,-6.734 -3.8795,-0.042 -7.3494,3.2736 -7.3494,6.8633 0,3.8546 4.5143,5.9496 7.4301,5.9588 3.5442,0.016 6.9194,-2.6459 7.1588,-6.0881 l 0,0 z m -1.2749,-14.3023 c 0.076,-3.3638 -3.0246,-5.7773 -6.2244,-5.6807 -2.8453,0.088 -5.8545,2.2595 -5.8595,5.0738 0,3.523 3.4251,5.2825 6.3498,5.3504 2.6546,0.06 5.674,-2.1994 5.7341,-4.7435 l 0,0 z m 0,0"
       id="path27-43-30-7"
       inkscape:connector-curvature="0"
       style="opacity:1" />
    <path
       style="display:inline;opacity:1"
       d="m 2070.9535,-1168.7123 c 0.1561,4.4158 1.7511,6.0723 4.8908,8.3827 -2.5049,1.8092 -3.5608,4.4759 -3.3458,6.7458 0.5158,5.4968 4.755,8.2445 9.3807,8.1269 4.6296,-0.1227 8.614,-3.7971 8.925,-7.7914 0.2701,-3.4721 -0.7603,-5.1481 -3.2203,-6.9743 2.9196,-2.4684 4.7844,-4.0896 4.7153,-8.4388 -0.069,-4.3494 -3.7643,-9.5249 -10.205,-9.6829 -6.4407,-0.1579 -11.3007,5.216 -11.1406,9.632 l 0,0 z m 17.9794,-0.016 c 0.2752,3.9982 -3.2549,6.6949 -7.2394,6.7341 -3.8795,0.042 -7.3495,-3.2737 -7.3495,-6.8634 0,-3.8545 4.5144,-5.9496 7.4302,-5.9588 3.5441,-0.016 6.9194,2.646 7.1588,6.0881 l 0,0 z m -1.2749,14.3023 c 0.076,3.3638 -3.0245,5.7774 -6.2244,5.6808 -2.8452,-0.088 -5.8544,-2.2596 -5.8595,-5.0738 0,-3.523 3.4252,-5.2826 6.3498,-5.3505 2.6546,-0.06 5.674,2.1995 5.7341,4.7435 l 0,0 z m 0,0"
       id="path27-43-3-4-8"
       inkscape:connector-curvature="0" />
  </g>
</svg>
