<?xml version="1.0" encoding="UTF-8" standalone="no"?>
<!-- Created with Inkscape (http://www.inkscape.org/) -->

<svg
   xmlns:dc="http://purl.org/dc/elements/1.1/"
   xmlns:cc="http://creativecommons.org/ns#"
   xmlns:rdf="http://www.w3.org/1999/02/22-rdf-syntax-ns#"
   xmlns:svg="http://www.w3.org/2000/svg"
   xmlns="http://www.w3.org/2000/svg"
   xmlns:xlink="http://www.w3.org/1999/xlink"
   xmlns:sodipodi="http://sodipodi.sourceforge.net/DTD/sodipodi-0.dtd"
   xmlns:inkscape="http://www.inkscape.org/namespaces/inkscape"
   width="2.4803147in"
   height="3.4645665in"
   viewBox="0 0 223.22833 311.81099"
   id="svg11376"
   version="1.1"
   inkscape:version="0.91 r13725"
   sodipodi:docname="9-CLUBS.svg">
  <defs
     id="defs11378">
    <linearGradient
       id="linearGradient3006">
      <stop
         style="stop-color:#ffffff;stop-opacity:1;"
         offset="0"
         id="stop3008" />
      <stop
         id="stop3014"
         offset="0.37675071"
         style="stop-color:#7f7f7f;stop-opacity:1;" />
      <stop
         style="stop-color:#ffffff;stop-opacity:1;"
         offset="0.80194807"
         id="stop3016" />
      <stop
         style="stop-color:#cccccc;stop-opacity:1"
         offset="1"
         id="stop3010" />
    </linearGradient>
    <linearGradient
       id="linearGradient3804">
      <stop
         style="stop-color:#000000;stop-opacity:1;"
         offset="0"
         id="stop3806" />
      <stop
         id="stop3812"
         offset="0.5"
         style="stop-color:#333333;stop-opacity:1" />
      <stop
         style="stop-color:#000000;stop-opacity:1;"
         offset="1"
         id="stop3808" />
    </linearGradient>
    <linearGradient
       id="linearGradient3851">
      <stop
         style="stop-color:#808080;stop-opacity:1;"
         offset="0"
         id="stop3853" />
      <stop
         id="stop3859"
         offset="0.5"
         style="stop-color:#ffffff;stop-opacity:1;" />
      <stop
         style="stop-color:#808080;stop-opacity:1;"
         offset="1"
         id="stop3855" />
    </linearGradient>
    <radialGradient
       inkscape:collect="always"
       xlink:href="#linearGradient3933-4-3"
       id="radialGradient3939-7-7"
       cx="44.149761"
       cy="208.92761"
       fx="44.149761"
       fy="208.92761"
       r="74.726646"
       gradientTransform="matrix(0.97241988,-0.00350785,0.00204639,0.40929875,4026.4071,-290.65137)"
       gradientUnits="userSpaceOnUse" />
    <linearGradient
       inkscape:collect="always"
       id="linearGradient3933-4-3">
      <stop
         style="stop-color:#000000;stop-opacity:1;"
         offset="0"
         id="stop3935-0-7" />
      <stop
         style="stop-color:#000000;stop-opacity:0;"
         offset="1"
         id="stop3937-9-2" />
    </linearGradient>
    <linearGradient
       inkscape:collect="always"
       xlink:href="#linearGradient3006"
       id="linearGradient3012-2-7"
       x1="81.90625"
       y1="294.38422"
       x2="178.15625"
       y2="294.38422"
       gradientUnits="userSpaceOnUse"
       gradientTransform="translate(3914.848,-255.2825)" />
    <linearGradient
       gradientTransform="translate(3914.848,-376.2825)"
       inkscape:collect="always"
       xlink:href="#linearGradient3804"
       id="linearGradient3810-9-1"
       x1="65.223801"
       y1="394.69629"
       x2="156.7487"
       y2="394.69629"
       gradientUnits="userSpaceOnUse" />
    <radialGradient
       inkscape:collect="always"
       xlink:href="#linearGradient3024-3-7"
       id="radialGradient3030-7-1"
       cx="114.59315"
       cy="428.49252"
       fx="114.59315"
       fy="428.49252"
       r="43.141743"
       gradientTransform="matrix(0.79138519,4.4166814e-8,0,0.48100739,3940.8627,-177.7307)"
       gradientUnits="userSpaceOnUse" />
    <linearGradient
       inkscape:collect="always"
       id="linearGradient3024-3-7">
      <stop
         id="stop3028-2-7"
         offset="0"
         style="stop-color:#000000;stop-opacity:1" />
      <stop
         id="stop3026-2-7"
         offset="1"
         style="stop-color:#242424;stop-opacity:1;" />
    </linearGradient>
    <linearGradient
       gradientTransform="translate(3914.848,-376.2825)"
       inkscape:collect="always"
       xlink:href="#linearGradient3933-4-3"
       id="linearGradient3113-4-7"
       gradientUnits="userSpaceOnUse"
       x1="145.60164"
       y1="375.92633"
       x2="183.7796"
       y2="390.78296" />
    <linearGradient
       gradientTransform="translate(3914.848,-376.2825)"
       inkscape:collect="always"
       xlink:href="#linearGradient3933-4-3"
       id="linearGradient3107-7-9"
       x1="113.00574"
       y1="395.66125"
       x2="116.81388"
       y2="405.19611"
       gradientUnits="userSpaceOnUse" />
    <linearGradient
       inkscape:collect="always"
       xlink:href="#linearGradient3804"
       id="linearGradient3086-3-9"
       gradientUnits="userSpaceOnUse"
       gradientTransform="matrix(0.43846429,7.9081918e-4,-6.5324466e-4,0.53080568,903.27012,-3758.3554)"
       x1="-158.78125"
       y1="459.14062"
       x2="-128.625"
       y2="459.14062" />
    <linearGradient
       inkscape:collect="always"
       xlink:href="#linearGradient3851"
       id="linearGradient3088-8-0"
       gradientUnits="userSpaceOnUse"
       gradientTransform="matrix(0.43846429,7.9081918e-4,-6.5324466e-4,0.53080568,970.15112,-3759.4954)"
       x1="-311.3125"
       y1="463.51562"
       x2="-281.15625"
       y2="463.51562" />
    <radialGradient
       inkscape:collect="always"
       xlink:href="#linearGradient3933-4-3"
       id="radialGradient3939-7-6"
       cx="44.149761"
       cy="208.92761"
       fx="44.149761"
       fy="208.92761"
       r="74.726646"
       gradientTransform="matrix(0.97241988,-0.00350785,0.00204639,0.40929875,4026.4074,-290.65146)"
       gradientUnits="userSpaceOnUse" />
    <linearGradient
       inkscape:collect="always"
       xlink:href="#linearGradient2989-6-6"
       id="linearGradient3004-8"
       gradientUnits="userSpaceOnUse"
       gradientTransform="translate(3896.2872,-468.4428)"
       x1="104.75369"
       y1="536.86133"
       x2="201.77882"
       y2="536.86133" />
    <linearGradient
       id="linearGradient2989-6-6">
      <stop
         style="stop-color:#1f1f1f;stop-opacity:1"
         offset="0"
         id="stop2991-1-5" />
      <stop
         id="stop2997-8-0"
         offset="0.5"
         style="stop-color:#000000;stop-opacity:1;" />
      <stop
         style="stop-color:#444444;stop-opacity:1"
         offset="1"
         id="stop2993-9-9" />
    </linearGradient>
    <linearGradient
       inkscape:collect="always"
       xlink:href="#linearGradient3006"
       id="linearGradient3012-2-0"
       x1="81.90625"
       y1="294.38422"
       x2="178.15625"
       y2="294.38422"
       gradientUnits="userSpaceOnUse"
       gradientTransform="translate(3914.8482,-255.28248)" />
    <linearGradient
       gradientTransform="translate(3914.8482,-376.2825)"
       inkscape:collect="always"
       xlink:href="#linearGradient3804"
       id="linearGradient3810-9-9"
       x1="65.223801"
       y1="394.69629"
       x2="156.7487"
       y2="394.69629"
       gradientUnits="userSpaceOnUse" />
    <radialGradient
       inkscape:collect="always"
       xlink:href="#linearGradient3024-3-7"
       id="radialGradient3030-7-0"
       cx="114.59315"
       cy="428.49252"
       fx="114.59315"
       fy="428.49252"
       r="43.141743"
       gradientTransform="matrix(0.79138519,4.4166814e-8,0,0.48100739,3940.8629,-177.73073)"
       gradientUnits="userSpaceOnUse" />
    <linearGradient
       gradientTransform="translate(3914.8482,-376.2825)"
       inkscape:collect="always"
       xlink:href="#linearGradient3933-4-3"
       id="linearGradient3113-4-8"
       gradientUnits="userSpaceOnUse"
       x1="145.60164"
       y1="375.92633"
       x2="183.7796"
       y2="390.78296" />
    <linearGradient
       gradientTransform="translate(3914.8482,-376.2825)"
       inkscape:collect="always"
       xlink:href="#linearGradient3933-4-3"
       id="linearGradient3107-7-3"
       x1="113.00574"
       y1="395.66125"
       x2="116.81388"
       y2="405.19611"
       gradientUnits="userSpaceOnUse" />
    <linearGradient
       inkscape:collect="always"
       xlink:href="#linearGradient3804"
       id="linearGradient3086-3-7"
       gradientUnits="userSpaceOnUse"
       gradientTransform="matrix(0.43846429,7.9081918e-4,-6.5324466e-4,0.53080568,903.2701,-3758.3555)"
       x1="-158.78125"
       y1="459.14062"
       x2="-128.625"
       y2="459.14062" />
    <linearGradient
       inkscape:collect="always"
       xlink:href="#linearGradient3851"
       id="linearGradient3088-8-1"
       gradientUnits="userSpaceOnUse"
       gradientTransform="matrix(0.43846429,7.9081918e-4,-6.5324466e-4,0.53080568,970.15118,-3759.4955)"
       x1="-311.3125"
       y1="463.51562"
       x2="-281.15625"
       y2="463.51562" />
    <pattern
       inkscape:collect="always"
       xlink:href="#pattern13545-1"
       id="pattern72508"
       patternTransform="matrix(-0.11059956,0.11059956,-0.11059956,-0.11059956,-70.743467,2137.2659)" />
    <pattern
       patternTransform="matrix(-0.11059956,0.11059956,-0.11059956,-0.11059956,-106.1174,687.64592)"
       id="pattern13545-1"
       xlink:href="#pattern13024-5" />
    <pattern
       id="pattern13024-5"
       patternTransform="translate(-254.02376,74.426221)"
       height="110.74085"
       width="108.6184"
       patternUnits="userSpaceOnUse">
      <path
         style="fill:#131f67;fill-opacity:1;stroke:none"
         id="path13016-2"
         d="m -1016.046,25.720671 -10.7642,16.120541 7.1773,18.006272 -18.6578,-5.255841 -14.9071,12.390288 -0.767,-19.36883 -16.3904,-10.348653 18.1838,-6.714754 4.7773,-18.786107 12.0052,15.218884 z"
         transform="translate(1070.3552,-11.763587)" />
      <path
         transform="matrix(0.8660254,0.5,-0.5,0.8660254,946.33909,568.72784)"
         d="m -1016.046,25.720671 -10.7642,16.120541 7.1773,18.006272 -18.6578,-5.255841 -14.9071,12.390288 -0.767,-19.36883 -16.3904,-10.348653 18.1838,-6.714754 4.7773,-18.786107 12.0052,15.218884 z"
         id="path13018-7"
         style="fill:#131f67;fill-opacity:1;stroke:none" />
      <path
         transform="translate(1124.6644,-11.763587)"
         style="fill:#131f67;fill-opacity:1;stroke:none"
         id="path13020-6"
         d="m -1016.046,25.720671 -10.7642,16.120541 7.1773,18.006272 -18.6578,-5.255841 -14.9071,12.390288 -0.767,-19.36883 -16.3904,-10.348653 18.1838,-6.714754 4.7773,-18.786107 12.0052,15.218884 z" />
      <path
         transform="matrix(0.8660254,0.5,-0.5,0.8660254,1000.6483,568.72784)"
         d="m -1016.046,25.720671 -10.7642,16.120541 7.1773,18.006272 -18.6578,-5.255841 -14.9071,12.390288 -0.767,-19.36883 -16.3904,-10.348653 18.1838,-6.714754 4.7773,-18.786107 12.0052,15.218884 z"
         id="path13022-1"
         style="fill:#131f67;fill-opacity:1;stroke:none" />
    </pattern>
    <pattern
       inkscape:collect="always"
       xlink:href="#pattern15142-1"
       id="pattern72564"
       patternTransform="matrix(0.10623121,-0.1062312,0.10623121,0.1062312,-199.21061,2428.6515)" />
    <pattern
       patternTransform="matrix(0.10623121,-0.1062312,0.10623121,0.1062312,-598.64084,979.03152)"
       id="pattern15142-1"
       xlink:href="#pattern13074-4-7" />
    <pattern
       patternTransform="matrix(0.10623121,-0.1062312,0.10623121,0.1062312,-605.82881,365.81179)"
       id="pattern13074-4-7"
       xlink:href="#pattern13064-2-4" />
    <pattern
       patternTransform="matrix(0.10623121,-0.1062312,0.10623121,0.1062312,-836.82881,38.811786)"
       id="pattern13064-2-4"
       xlink:href="#pattern8526-950-188-3-0" />
    <pattern
       patternTransform="matrix(0.10623121,-0.1062312,0.10623121,0.1062312,13.113538,22.901883)"
       id="pattern8526-950-188-3-0"
       xlink:href="#pattern8519-687-26-2-9" />
    <pattern
       patternTransform="matrix(0.10623121,-0.1062312,0.10623121,0.1062312,-23.656015,100.68363)"
       id="pattern8519-687-26-2-9"
       xlink:href="#pattern8507-266-27-2-4" />
    <pattern
       patternTransform="matrix(0.10623119,-0.10623119,0.10623119,0.10623119,194.54709,-74.729113)"
       id="pattern8507-266-27-2-4"
       xlink:href="#pattern8501-248-271-1-8" />
    <pattern
       patternTransform="matrix(0.0652057,-0.0652057,0.0652057,0.0652057,194.54709,-74.729113)"
       id="pattern8501-248-271-1-8"
       xlink:href="#pattern8475-545-163-6-8" />
    <pattern
       patternTransform="matrix(0.11006325,-0.11006325,0.11006325,0.11006325,-254.02376,74.426221)"
       id="pattern8475-545-163-6-8"
       xlink:href="#pattern8463-7-486-8-2" />
    <pattern
       id="pattern8463-7-486-8-2"
       patternTransform="translate(-254.02376,74.426221)"
       height="110.74085"
       width="108.6184"
       patternUnits="userSpaceOnUse">
      <path
         style="fill:#d40000;fill-opacity:1;stroke:none"
         id="path11396-5-4"
         d="m -1016.046,25.720671 -10.7642,16.120541 7.1773,18.006272 -18.6578,-5.255841 -14.9071,12.390288 -0.767,-19.36883 -16.3904,-10.348653 18.1838,-6.714754 4.7773,-18.786107 12.0052,15.218884 z"
         transform="translate(1070.3552,-11.763587)" />
      <path
         transform="matrix(0.8660254,0.5,-0.5,0.8660254,946.33909,568.72784)"
         d="m -1016.046,25.720671 -10.7642,16.120541 7.1773,18.006272 -18.6578,-5.255841 -14.9071,12.390288 -0.767,-19.36883 -16.3904,-10.348653 18.1838,-6.714754 4.7773,-18.786107 12.0052,15.218884 z"
         id="path11398-7-5"
         style="fill:#d40000;fill-opacity:1;stroke:none" />
      <path
         transform="translate(1124.6644,-11.763587)"
         style="fill:#d40000;fill-opacity:1;stroke:none"
         id="path11400-6-5"
         d="m -1016.046,25.720671 -10.7642,16.120541 7.1773,18.006272 -18.6578,-5.255841 -14.9071,12.390288 -0.767,-19.36883 -16.3904,-10.348653 18.1838,-6.714754 4.7773,-18.786107 12.0052,15.218884 z" />
      <path
         transform="matrix(0.8660254,0.5,-0.5,0.8660254,1000.6483,568.72784)"
         d="m -1016.046,25.720671 -10.7642,16.120541 7.1773,18.006272 -18.6578,-5.255841 -14.9071,12.390288 -0.767,-19.36883 -16.3904,-10.348653 18.1838,-6.714754 4.7773,-18.786107 12.0052,15.218884 z"
         id="path11402-1-1"
         style="fill:#d40000;fill-opacity:1;stroke:none" />
    </pattern>
  </defs>
  <sodipodi:namedview
     id="base"
     pagecolor="#ffffff"
     bordercolor="#666666"
     borderopacity="1.0"
     inkscape:pageopacity="0.0"
     inkscape:pageshadow="2"
     inkscape:zoom="2.8605684"
     inkscape:cx="84.852811"
     inkscape:cy="263.04372"
     inkscape:document-units="px"
     inkscape:current-layer="layer1"
     showgrid="false"
     units="in"
     inkscape:window-width="1280"
     inkscape:window-height="700"
     inkscape:window-x="291"
     inkscape:window-y="106"
     inkscape:window-maximized="0"
     fit-margin-top="0"
     fit-margin-left="0"
     fit-margin-right="0"
     fit-margin-bottom="0" />
  <metadata
     id="metadata11381">
    <rdf:RDF>
      <cc:Work
         rdf:about="">
        <dc:format>image/svg+xml</dc:format>
        <dc:type
           rdf:resource="http://purl.org/dc/dcmitype/StillImage" />
        <dc:title />
      </cc:Work>
    </rdf:RDF>
  </metadata>
  <g
     inkscape:label="Layer 1"
     inkscape:groupmode="layer"
     id="layer1"
     transform="translate(-2139.2648,2146.5956)">
    <g
       inkscape:label="Printing Marks"
       id="printing-marks-0-11-94-9-4"
       transform="matrix(0.99553774,0,0,0.99680134,468.48764,-1457.4607)" />
    <g
       inkscape:label="Printing Marks"
       id="printing-marks-0-11-8-7-3"
       transform="matrix(0.99553774,0,0,0.99680134,732.71268,-1457.4607)" />
    <g
       style="display:inline;opacity:1"
       id="g8337-7-7-3"
       transform="matrix(0.99553774,0,0,0.99680134,1282.6816,-1108.2114)" />
    <g
       style="display:inline;opacity:1"
       id="g8337-7-1-5-1"
       transform="matrix(0.99553774,0,0,0.99680134,1546.9067,-1108.2114)" />
    <g
       id="g5701"
       inkscape:label="Printing Marks"
       transform="matrix(1.0039097,0,0,1.0069802,1005.5505,-9.6258846)" />
    <g
       inkscape:label="Printing Marks"
       id="g5747"
       transform="matrix(1.0039097,0,0,1.0069802,1289.8363,21.088361)" />
    <path
       d="m 2302.4101,-2113.0922 c -9.7745,0.2122 -14.1575,11.2172 -6.9184,19.7632 1.0499,1.2466 1.1582,1.9619 -0.7646,0.7646 -4.8738,-3.2592 -14.2192,-1.1167 -14.6978,8.8472 -0.5911,12.2771 16.5629,15.8144 19.7837,2.7598 0.1701,-1.3773 1.2896,-1.3459 1.0196,0.6092 -0.2937,5.3064 -1.9509,10.266 -4.2287,15.1025 3.8391,0 8.1296,0 11.6202,0 -2.2777,-4.8365 -3.9349,-9.7961 -4.2286,-15.1025 -0.2699,-1.9551 0.8495,-1.9865 1.0195,-0.6092 3.2209,13.0546 20.3748,9.5173 19.7836,-2.7598 -0.4784,-9.9639 -9.8239,-12.1064 -14.6977,-8.8472 -1.9228,1.1973 -1.8144,0.482 -0.7646,-0.7646 7.239,-8.546 2.856,-19.551 -6.9182,-19.7632 0,-10e-5 0,0 -0.01,0 z"
       id="path147-0-8-1-6-13-2-9-8-8"
       inkscape:connector-curvature="0"
       sodipodi:nodetypes="ccccccccccccccc"
       style="display:inline;opacity:1" />
    <path
       d="m 2199.3396,-2113.0922 c -9.7745,0.2122 -14.1575,11.2172 -6.9184,19.7632 1.0499,1.2466 1.1582,1.9619 -0.7646,0.7646 -4.8738,-3.2592 -14.2191,-1.1167 -14.6978,8.8472 -0.5911,12.2771 16.5629,15.8144 19.7837,2.7598 0.1701,-1.3773 1.2894,-1.3459 1.0196,0.6092 -0.2937,5.3064 -1.9509,10.266 -4.2287,15.1025 3.8391,0 8.1296,0 11.6201,0 -2.2776,-4.8365 -3.9348,-9.7961 -4.2285,-15.1025 -0.2699,-1.9551 0.8495,-1.9865 1.0195,-0.6092 3.2208,13.0546 20.3748,9.5173 19.7836,-2.7598 -0.4784,-9.9639 -9.8239,-12.1064 -14.6978,-8.8472 -1.9228,1.1973 -1.8145,0.482 -0.7646,-0.7646 7.2391,-8.546 2.8561,-19.551 -6.9182,-19.7632 0,-10e-5 0,0 -0.01,0 z"
       id="path147-0-8-1-6-75-2-83-3-5-0"
       inkscape:connector-curvature="0"
       sodipodi:nodetypes="ccccccccccccccc"
       inkscape:transform-center-x="-110.30866"
       inkscape:transform-center-y="0.35355339"
       style="display:inline;opacity:1" />
    <path
       d="m 2302.4101,-1867.4587 c -9.7745,-0.2123 -14.1575,-11.2173 -6.9184,-19.7633 1.0499,-1.2466 1.1582,-1.9619 -0.7646,-0.7646 -4.8738,3.2592 -14.2192,1.1167 -14.6978,-8.8473 -0.591,-12.2769 16.5629,-15.8143 19.7837,-2.7596 0.1701,1.3773 1.2896,1.3459 1.0196,-0.6092 -0.2937,-5.3064 -1.9509,-10.2661 -4.2287,-15.1026 3.8391,0 8.1296,0 11.6202,0 -2.2777,4.8365 -3.9349,9.7962 -4.2286,15.1026 -0.2699,1.9551 0.8495,1.9865 1.0195,0.6092 3.2209,-13.0547 20.3748,-9.5173 19.7836,2.7596 -0.4784,9.964 -9.8239,12.1065 -14.6977,8.8473 -1.9228,-1.1973 -1.8144,-0.482 -0.7646,0.7646 7.239,8.546 2.856,19.551 -6.9182,19.7633 0,0 0,-1e-4 -0.01,0 z"
       id="path147-0-8-1-6-7-5-5-7-63-0-4"
       inkscape:connector-curvature="0"
       sodipodi:nodetypes="ccccccccccccccc"
       style="display:inline;opacity:1" />
    <path
       d="m 2199.3396,-1867.4587 c -9.7745,-0.2123 -14.1575,-11.2173 -6.9184,-19.7633 1.0499,-1.2466 1.1582,-1.9619 -0.7646,-0.7646 -4.8738,3.2592 -14.2191,1.1167 -14.6978,-8.8473 -0.5911,-12.2769 16.5629,-15.8143 19.7837,-2.7596 0.1701,1.3773 1.2894,1.3459 1.0196,-0.6092 -0.2937,-5.3064 -1.9509,-10.2661 -4.2287,-15.1026 3.8391,0 8.1296,0 11.6201,0 -2.2776,4.8365 -3.9348,9.7962 -4.2285,15.1026 -0.2699,1.9551 0.8495,1.9865 1.0195,0.6092 3.2208,-13.0547 20.3748,-9.5173 19.7836,2.7596 -0.4784,9.964 -9.8239,12.1065 -14.6978,8.8473 -1.9228,-1.1973 -1.8145,-0.482 -0.7646,0.7646 7.2391,8.546 2.8561,19.551 -6.9182,19.7633 0,0 0,-1e-4 -0.01,0 z"
       id="path147-0-8-1-6-75-6-1-2-46-5-0"
       inkscape:connector-curvature="0"
       sodipodi:nodetypes="ccccccccccccccc"
       inkscape:transform-center-x="-110.30866"
       inkscape:transform-center-y="-0.35355495"
       style="display:inline;opacity:1" />
    <path
       d="m 2250.8748,-2014.1988 c -9.7745,0.2123 -14.1573,11.2173 -6.9184,19.7634 1.05,1.2465 1.1583,1.9619 -0.7646,0.7645 -4.8736,-3.2592 -14.2191,-1.1166 -14.6976,8.8473 -0.5911,12.277 16.5627,15.8143 19.7835,2.7597 0.1701,-1.3774 1.2894,-1.346 1.0196,0.6091 -0.2937,5.3065 -1.9508,10.2661 -4.2286,15.1026 3.839,0 8.1295,0 11.6201,0 -2.2777,-4.8365 -3.9349,-9.7961 -4.2286,-15.1026 -0.2699,-1.9551 0.8495,-1.9865 1.0195,-0.6091 3.2209,13.0546 20.3749,9.5173 19.7837,-2.7597 -0.4784,-9.9639 -9.8239,-12.1065 -14.6978,-8.8473 -1.9228,1.1974 -1.8145,0.482 -0.7646,-0.7645 7.2391,-8.5461 2.8561,-19.5511 -6.9182,-19.7634 0,0 0,10e-5 -0.01,0 z"
       id="path147-0-8-1-6-1-1-0-5-61-2-0"
       inkscape:connector-curvature="0"
       sodipodi:nodetypes="ccccccccccccccc"
       style="display:inline;opacity:1" />
    <path
       d="m 2344.8566,-1885.0962 c 3.9096,-0.088 5.663,-4.6739 2.7673,-8.2347 -0.42,-0.5194 -0.4633,-0.8175 0.3059,-0.3186 1.9495,1.358 5.6877,0.4652 5.8791,-3.6864 0.2364,-5.1154 -6.6253,-6.5893 -7.9134,-1.1498 -0.068,0.5739 -0.5158,0.5608 -0.4079,-0.2539 0.1176,-2.211 0.7803,-4.2775 1.6913,-6.2927 -1.5491,0 -3.0984,0 -4.6476,0 0.9111,2.0152 1.5739,4.0817 1.6914,6.2927 0.108,0.8147 -0.3398,0.8278 -0.4079,0.2539 -1.2882,-5.4395 -8.1499,-3.9656 -7.9134,1.1498 0.1914,4.1516 3.9295,5.0444 5.8791,3.6864 0.7692,-0.4989 0.7259,-0.2008 0.3059,0.3186 -2.8957,3.5608 -1.1424,8.1462 2.7672,8.2347 0,0 0,-10e-5 0,0 z"
       id="path147-6-9-8-7-0-5-6-5-2-8"
       inkscape:connector-curvature="0"
       sodipodi:nodetypes="ccccccccccccccc"
       style="display:inline;opacity:1" />
    <path
       d="m 2199.3396,-2047.1633 c -9.7744,0.2123 -14.1574,11.2173 -6.9184,19.7634 1.0499,1.2465 1.1583,1.9618 -0.7645,0.7645 -4.8738,-3.2592 -14.2192,-1.1166 -14.6978,8.8473 -0.5912,12.277 16.5629,15.8143 19.7837,2.7597 0.1701,-1.3774 1.2893,-1.346 1.0196,0.6091 -0.2937,5.3064 -1.9509,10.2661 -4.2287,15.1026 3.8391,0 8.1295,0 11.62,0 -2.2776,-4.8365 -3.9348,-9.7962 -4.2285,-15.1026 -0.2699,-1.9551 0.8495,-1.9865 1.0195,-0.6091 3.2208,13.0546 20.3748,9.5173 19.7836,-2.7597 -0.4784,-9.9639 -9.8239,-12.1065 -14.6978,-8.8473 -1.9228,1.1973 -1.8145,0.482 -0.7646,-0.7645 7.2391,-8.5461 2.8561,-19.5511 -6.9182,-19.7634 0,0 0,10e-5 -0.01,0 z"
       id="path147-0-8-1-6-75-2-9-77-4-4-2"
       inkscape:connector-curvature="0"
       sodipodi:nodetypes="ccccccccccccccc"
       inkscape:transform-center-x="-110.30866"
       inkscape:transform-center-y="0.35355339"
       style="display:inline;opacity:1" />
    <path
       d="m 2199.3396,-1933.3877 c -9.7745,-0.2123 -14.1575,-11.2173 -6.9184,-19.7634 1.0499,-1.2465 1.1582,-1.9618 -0.7646,-0.7645 -4.8738,3.2592 -14.2191,1.1166 -14.6978,-8.8473 -0.5911,-12.2769 16.5629,-15.8143 19.7837,-2.7596 0.1701,1.3773 1.2894,1.3459 1.0196,-0.6092 -0.2937,-5.3064 -1.9509,-10.2661 -4.2287,-15.1026 3.8391,0 8.1296,0 11.6201,0 -2.2776,4.8365 -3.9348,9.7962 -4.2285,15.1026 -0.2699,1.9551 0.8495,1.9865 1.0195,0.6092 3.2208,-13.0547 20.3748,-9.5173 19.7836,2.7596 -0.4784,9.9639 -9.8239,12.1065 -14.6978,8.8473 -1.9228,-1.1973 -1.8145,-0.482 -0.7646,0.7645 7.2391,8.5461 2.8561,19.5511 -6.9182,19.7634 0,0 0,-10e-5 -0.01,0 z"
       id="path147-0-8-1-6-75-2-8-0-6-4-4"
       inkscape:connector-curvature="0"
       sodipodi:nodetypes="ccccccccccccccc"
       inkscape:transform-center-x="-110.30866"
       inkscape:transform-center-y="-0.35355495"
       style="display:inline;opacity:1" />
    <path
       d="m 2302.4101,-2047.1633 c -9.7745,0.2123 -14.1575,11.2173 -6.9184,19.7634 1.0499,1.2465 1.1582,1.9618 -0.7646,0.7645 -4.8738,-3.2592 -14.2192,-1.1166 -14.6978,8.8473 -0.591,12.277 16.5629,15.8143 19.7837,2.7597 0.1701,-1.3774 1.2895,-1.346 1.0196,0.6091 -0.2937,5.3064 -1.9509,10.2661 -4.2287,15.1026 3.8391,0 8.1296,0 11.6202,0 -2.2777,-4.8365 -3.9349,-9.7962 -4.2286,-15.1026 -0.2699,-1.9551 0.8495,-1.9865 1.0195,-0.6091 3.2209,13.0546 20.3748,9.5173 19.7836,-2.7597 -0.4784,-9.9639 -9.8239,-12.1065 -14.6977,-8.8473 -1.9228,1.1973 -1.8144,0.482 -0.7646,-0.7645 7.239,-8.5461 2.856,-19.5511 -6.9182,-19.7634 0,0 0,10e-5 -0.01,0 z"
       id="path147-0-8-1-6-75-2-9-7-1-36-2-4"
       inkscape:connector-curvature="0"
       sodipodi:nodetypes="ccccccccccccccc"
       inkscape:transform-center-x="-110.30866"
       inkscape:transform-center-y="0.35355339"
       style="display:inline;opacity:1" />
    <path
       d="m 2302.4101,-1933.3877 c -9.7745,-0.2123 -14.1575,-11.2173 -6.9184,-19.7634 1.0499,-1.2465 1.1582,-1.9618 -0.7646,-0.7645 -4.8738,3.2592 -14.2192,1.1166 -14.6978,-8.8473 -0.591,-12.2769 16.5629,-15.8143 19.7837,-2.7596 0.1701,1.3773 1.2895,1.3459 1.0196,-0.6092 -0.2937,-5.3064 -1.9509,-10.2661 -4.2287,-15.1026 3.8391,0 8.1296,0 11.6202,0 -2.2777,4.8365 -3.9349,9.7962 -4.2286,15.1026 -0.2699,1.9551 0.8495,1.9865 1.0195,0.6092 3.2209,-13.0547 20.3748,-9.5173 19.7836,2.7596 -0.4784,9.9639 -9.8239,12.1065 -14.6977,8.8473 -1.9228,-1.1973 -1.8144,-0.482 -0.7646,0.7645 7.239,8.5461 2.856,19.5511 -6.9182,19.7634 0,0 0,-10e-5 -0.01,0 z"
       id="path147-0-8-1-6-75-2-8-5-1-55-5-4"
       inkscape:connector-curvature="0"
       sodipodi:nodetypes="ccccccccccccccc"
       inkscape:transform-center-x="-110.30866"
       inkscape:transform-center-y="-0.35355495"
       style="display:inline;opacity:1" />
    <path
       d="m 2156.9022,-2096.2836 c -3.9098,0.088 -5.663,4.6738 -2.7674,8.2347 0.42,0.5194 0.4632,0.8174 -0.3058,0.3185 -1.9497,-1.358 -5.6877,-0.4652 -5.8792,3.6864 -0.2364,5.1155 6.6252,6.5894 7.9135,1.1499 0.068,-0.5739 0.5158,-0.5608 0.4078,0.2539 -0.1175,2.211 -0.7803,4.2775 -1.6914,6.2927 1.5493,0 3.0986,0 4.6479,0 -0.9111,-2.0152 -1.574,-4.0817 -1.6915,-6.2927 -0.108,-0.8147 0.3397,-0.8278 0.4078,-0.2539 1.2883,5.4395 8.15,3.9656 7.9135,-1.1499 -0.1914,-4.1516 -3.9295,-5.0444 -5.8791,-3.6864 -0.7691,0.4989 -0.7258,0.2009 -0.3059,-0.3185 2.8957,-3.5609 1.1424,-8.1463 -2.7672,-8.2347 0,0 0,0 0,0 z"
       id="path147-6-9-8-7-4-5-62-7-8-4"
       inkscape:connector-curvature="0"
       sodipodi:nodetypes="ccccccccccccccc"
       style="display:inline;opacity:1" />
    <path
       d="m 2147.725,-2105.7502 3.0054,-0.9541 c 1.1353,3.0333 3.4251,3.9313 5.8493,3.7368 4.3493,-0.3472 5.7944,-5.2156 6.1195,-9.5189 -1.6947,1.7999 -4.2405,2.7135 -6.41,2.6209 -6.9348,-0.372 -8.71,-5.9296 -8.774,-11.747 -0.1895,-4.905 1.8354,-8.4578 5.3092,-10.0893 1.8405,-0.8262 6.0541,-0.8262 7.9049,0.1527 4.2494,2.245 5.825,6.1228 5.5396,15.382 0,7.6172 -1.6153,16.4887 -9.7698,16.6819 -4.7089,0.6526 -8.289,-3.0176 -8.7741,-6.265 l 0,0 z m 11.805,-8.3469 c 1.4144,-0.8966 2.2105,-1.7385 2.8454,-2.998 0.5196,-1.0351 0.7,-1.5754 0.5503,-3.716 -0.3853,-5.5223 -3.2753,-8.6575 -7.4697,-8.0362 -2.3398,0.3524 -3.6197,1.6629 -4.3544,4.0997 -1.3555,4.5069 0.3648,9.7787 3.5851,10.9925 1.4489,0.5508 3.6888,0.3929 4.8433,-0.342 l 0,0 z m 0,0"
       id="path29-2-3-4"
       inkscape:connector-curvature="0"
       style="opacity:1" />
    <path
       d="m 2354.0307,-1875.6296 -3.0053,0.9541 c -1.1353,-3.0333 -3.4252,-3.9313 -5.8493,-3.7368 -4.3493,0.3472 -5.7943,5.2157 -6.1195,9.519 1.6947,-1.8 4.2405,-2.7136 6.41,-2.6209 6.9347,0.372 8.71,5.9295 8.774,11.7469 0.1894,4.905 -1.8355,8.4578 -5.3092,10.0893 -1.8406,0.8262 -6.0541,0.8262 -7.9049,-0.1527 -4.2495,-2.245 -5.825,-6.1227 -5.5396,-15.3819 0,-7.6173 1.6153,-16.4889 9.7698,-16.682 4.7088,-0.6527 8.2889,3.0176 8.774,6.265 l 0,0 z m -11.8049,8.3469 c -1.4143,0.8966 -2.2105,1.7385 -2.8453,2.9981 -0.5197,1.035 -0.7002,1.5753 -0.5504,3.7159 0.3853,5.5223 3.2754,8.6575 7.4697,8.0362 2.3398,-0.3524 3.6196,-1.6629 4.3543,-4.0997 1.3556,-4.5069 -0.3647,-9.7787 -3.5851,-10.9925 -1.4488,-0.5509 -3.6887,-0.3929 -4.8432,0.342 l 0,0 z m 0,0"
       id="path29-6-1-3-7"
       inkscape:connector-curvature="0"
       style="opacity:1" />
  </g>
</svg>
